M48
; DRILL file {KiCad 8.0.1-rc1} date 2024-09-01T13:53:54-0500
; FORMAT={-:-/ absolute / metric / decimal}
; #@! TF.CreationDate,2024-09-01T13:53:54-05:00
; #@! TF.GenerationSoftware,Kicad,Pcbnew,8.0.1-rc1
; #@! TF.FileFunction,Plated,1,2,PTH
FMAT,2
METRIC
; #@! TA.AperFunction,Plated,PTH,ComponentDrill
T1C0.762
; #@! TA.AperFunction,Plated,PTH,ComponentDrill
T2C0.800
; #@! TA.AperFunction,Plated,PTH,ComponentDrill
T3C0.900
; #@! TA.AperFunction,Plated,PTH,ComponentDrill
T4C1.850
; #@! TA.AperFunction,Plated,PTH,ComponentDrill
T5C2.000
%
G90
G05
T1
X60.313Y-132.2
X60.313Y-139.2
T2
X31.5Y-40.5
X33.5Y-40.5
X49.5Y-78.0
X49.5Y-88.16
X51.33Y-35.245
X51.33Y-45.405
X67.5Y-78.08
X67.5Y-88.24
X70.37Y-35.245
X70.37Y-45.405
X89.08Y-78.23
X89.08Y-88.39
X90.5Y-35.42
X90.5Y-45.58
X111.79Y-78.325
X111.79Y-88.485
X115.08Y-35.07
X115.08Y-45.23
X135.5Y-78.08
X135.5Y-88.24
X139.58Y-35.245
X139.58Y-45.405
X161.29Y-78.325
X161.29Y-88.485
X164.79Y-35.665
X164.79Y-45.825
X185.79Y-78.325
X185.79Y-88.485
X186.29Y-35.92
X186.29Y-46.08
X209.79Y-78.325
X209.79Y-88.485
X210.0Y-35.92
X210.0Y-46.08
X232.33Y-35.665
X232.33Y-45.825
X233.29Y-78.325
X233.29Y-88.485
X256.33Y-78.825
X256.33Y-88.985
X256.54Y-35.34
X256.54Y-45.5
T3
X47.25Y-108.405
X49.58Y-58.57
X49.79Y-108.405
X52.12Y-58.57
X65.75Y-108.405
X67.58Y-59.42
X68.29Y-108.405
X70.12Y-59.42
X87.04Y-108.73
X89.25Y-59.325
X89.58Y-108.73
X91.79Y-59.325
X109.04Y-109.23
X111.58Y-109.23
X113.08Y-59.07
X115.62Y-59.07
X132.75Y-108.405
X135.29Y-108.405
X138.08Y-59.245
X140.62Y-59.245
X158.75Y-107.825
X161.29Y-107.825
X162.79Y-58.745
X165.33Y-58.745
X182.25Y-107.825
X184.79Y-58.92
X184.79Y-107.825
X187.33Y-58.92
X207.04Y-107.65
X208.5Y-58.92
X209.58Y-107.65
X211.04Y-58.92
X230.58Y-58.57
X231.04Y-107.65
X233.12Y-58.57
X233.58Y-107.65
X254.08Y-108.15
X255.29Y-58.745
X256.62Y-108.15
X257.83Y-58.745
T4
X32.0Y-61.8
X32.0Y-66.5
X32.0Y-71.2
T5
X26.0Y-131.0
X29.0Y-87.0
M30
