%TF.GenerationSoftware,KiCad,Pcbnew,8.0.1-rc1*%
%TF.CreationDate,2024-09-01T13:54:38-05:00*%
%TF.ProjectId,PauseSwitch,50617573-6553-4776-9974-63682e6b6963,rev?*%
%TF.SameCoordinates,Original*%
%TF.FileFunction,Drillmap*%
%TF.FilePolarity,Positive*%
%FSLAX45Y45*%
G04 Gerber Fmt 4.5, Leading zero omitted, Abs format (unit mm)*
G04 Created by KiCad (PCBNEW 8.0.1-rc1) date 2024-09-01 13:54:38*
%MOMM*%
%LPD*%
G01*
G04 APERTURE LIST*
%ADD10C,0.050000*%
%ADD11C,0.200000*%
%ADD12C,0.100000*%
%ADD13C,0.185000*%
G04 APERTURE END LIST*
D10*
X27925000Y-1700000D02*
X27850000Y-15700000D01*
X27850000Y-15700000D02*
X1750000Y-15800000D01*
X1675000Y-1700000D02*
X1750000Y-15800000D01*
X1675000Y-1700000D02*
X27925000Y-1700000D01*
D11*
D12*
X5993250Y-13181900D02*
X6069450Y-13258100D01*
X6069450Y-13181900D02*
X5993250Y-13258100D01*
X5993250Y-13881900D02*
X6069450Y-13958100D01*
X6069450Y-13881900D02*
X5993250Y-13958100D01*
X3190000Y-4050000D02*
G75*
G02*
X3110000Y-4050000I-40000J0D01*
G01*
X3110000Y-4050000D02*
G75*
G02*
X3190000Y-4050000I40000J0D01*
G01*
X3390000Y-4050000D02*
G75*
G02*
X3310000Y-4050000I-40000J0D01*
G01*
X3310000Y-4050000D02*
G75*
G02*
X3390000Y-4050000I40000J0D01*
G01*
X4990000Y-7800000D02*
G75*
G02*
X4910000Y-7800000I-40000J0D01*
G01*
X4910000Y-7800000D02*
G75*
G02*
X4990000Y-7800000I40000J0D01*
G01*
X4990000Y-8816000D02*
G75*
G02*
X4910000Y-8816000I-40000J0D01*
G01*
X4910000Y-8816000D02*
G75*
G02*
X4990000Y-8816000I40000J0D01*
G01*
X5173000Y-3524500D02*
G75*
G02*
X5093000Y-3524500I-40000J0D01*
G01*
X5093000Y-3524500D02*
G75*
G02*
X5173000Y-3524500I40000J0D01*
G01*
X5173000Y-4540500D02*
G75*
G02*
X5093000Y-4540500I-40000J0D01*
G01*
X5093000Y-4540500D02*
G75*
G02*
X5173000Y-4540500I40000J0D01*
G01*
X6790000Y-7808000D02*
G75*
G02*
X6710000Y-7808000I-40000J0D01*
G01*
X6710000Y-7808000D02*
G75*
G02*
X6790000Y-7808000I40000J0D01*
G01*
X6790000Y-8824000D02*
G75*
G02*
X6710000Y-8824000I-40000J0D01*
G01*
X6710000Y-8824000D02*
G75*
G02*
X6790000Y-8824000I40000J0D01*
G01*
X7077000Y-3524500D02*
G75*
G02*
X6997000Y-3524500I-40000J0D01*
G01*
X6997000Y-3524500D02*
G75*
G02*
X7077000Y-3524500I40000J0D01*
G01*
X7077000Y-4540500D02*
G75*
G02*
X6997000Y-4540500I-40000J0D01*
G01*
X6997000Y-4540500D02*
G75*
G02*
X7077000Y-4540500I40000J0D01*
G01*
X8948000Y-7823000D02*
G75*
G02*
X8868000Y-7823000I-40000J0D01*
G01*
X8868000Y-7823000D02*
G75*
G02*
X8948000Y-7823000I40000J0D01*
G01*
X8948000Y-8839000D02*
G75*
G02*
X8868000Y-8839000I-40000J0D01*
G01*
X8868000Y-8839000D02*
G75*
G02*
X8948000Y-8839000I40000J0D01*
G01*
X9090000Y-3542000D02*
G75*
G02*
X9010000Y-3542000I-40000J0D01*
G01*
X9010000Y-3542000D02*
G75*
G02*
X9090000Y-3542000I40000J0D01*
G01*
X9090000Y-4558000D02*
G75*
G02*
X9010000Y-4558000I-40000J0D01*
G01*
X9010000Y-4558000D02*
G75*
G02*
X9090000Y-4558000I40000J0D01*
G01*
X11219000Y-7832500D02*
G75*
G02*
X11139000Y-7832500I-40000J0D01*
G01*
X11139000Y-7832500D02*
G75*
G02*
X11219000Y-7832500I40000J0D01*
G01*
X11219000Y-8848500D02*
G75*
G02*
X11139000Y-8848500I-40000J0D01*
G01*
X11139000Y-8848500D02*
G75*
G02*
X11219000Y-8848500I40000J0D01*
G01*
X11548000Y-3507000D02*
G75*
G02*
X11468000Y-3507000I-40000J0D01*
G01*
X11468000Y-3507000D02*
G75*
G02*
X11548000Y-3507000I40000J0D01*
G01*
X11548000Y-4523000D02*
G75*
G02*
X11468000Y-4523000I-40000J0D01*
G01*
X11468000Y-4523000D02*
G75*
G02*
X11548000Y-4523000I40000J0D01*
G01*
X13590000Y-7808000D02*
G75*
G02*
X13510000Y-7808000I-40000J0D01*
G01*
X13510000Y-7808000D02*
G75*
G02*
X13590000Y-7808000I40000J0D01*
G01*
X13590000Y-8824000D02*
G75*
G02*
X13510000Y-8824000I-40000J0D01*
G01*
X13510000Y-8824000D02*
G75*
G02*
X13590000Y-8824000I40000J0D01*
G01*
X13998000Y-3524500D02*
G75*
G02*
X13918000Y-3524500I-40000J0D01*
G01*
X13918000Y-3524500D02*
G75*
G02*
X13998000Y-3524500I40000J0D01*
G01*
X13998000Y-4540500D02*
G75*
G02*
X13918000Y-4540500I-40000J0D01*
G01*
X13918000Y-4540500D02*
G75*
G02*
X13998000Y-4540500I40000J0D01*
G01*
X16169000Y-7832500D02*
G75*
G02*
X16089000Y-7832500I-40000J0D01*
G01*
X16089000Y-7832500D02*
G75*
G02*
X16169000Y-7832500I40000J0D01*
G01*
X16169000Y-8848500D02*
G75*
G02*
X16089000Y-8848500I-40000J0D01*
G01*
X16089000Y-8848500D02*
G75*
G02*
X16169000Y-8848500I40000J0D01*
G01*
X16519000Y-3566500D02*
G75*
G02*
X16439000Y-3566500I-40000J0D01*
G01*
X16439000Y-3566500D02*
G75*
G02*
X16519000Y-3566500I40000J0D01*
G01*
X16519000Y-4582500D02*
G75*
G02*
X16439000Y-4582500I-40000J0D01*
G01*
X16439000Y-4582500D02*
G75*
G02*
X16519000Y-4582500I40000J0D01*
G01*
X18619000Y-7832500D02*
G75*
G02*
X18539000Y-7832500I-40000J0D01*
G01*
X18539000Y-7832500D02*
G75*
G02*
X18619000Y-7832500I40000J0D01*
G01*
X18619000Y-8848500D02*
G75*
G02*
X18539000Y-8848500I-40000J0D01*
G01*
X18539000Y-8848500D02*
G75*
G02*
X18619000Y-8848500I40000J0D01*
G01*
X18669000Y-3592000D02*
G75*
G02*
X18589000Y-3592000I-40000J0D01*
G01*
X18589000Y-3592000D02*
G75*
G02*
X18669000Y-3592000I40000J0D01*
G01*
X18669000Y-4608000D02*
G75*
G02*
X18589000Y-4608000I-40000J0D01*
G01*
X18589000Y-4608000D02*
G75*
G02*
X18669000Y-4608000I40000J0D01*
G01*
X21019000Y-7832500D02*
G75*
G02*
X20939000Y-7832500I-40000J0D01*
G01*
X20939000Y-7832500D02*
G75*
G02*
X21019000Y-7832500I40000J0D01*
G01*
X21019000Y-8848500D02*
G75*
G02*
X20939000Y-8848500I-40000J0D01*
G01*
X20939000Y-8848500D02*
G75*
G02*
X21019000Y-8848500I40000J0D01*
G01*
X21040000Y-3592000D02*
G75*
G02*
X20960000Y-3592000I-40000J0D01*
G01*
X20960000Y-3592000D02*
G75*
G02*
X21040000Y-3592000I40000J0D01*
G01*
X21040000Y-4608000D02*
G75*
G02*
X20960000Y-4608000I-40000J0D01*
G01*
X20960000Y-4608000D02*
G75*
G02*
X21040000Y-4608000I40000J0D01*
G01*
X23273000Y-3566500D02*
G75*
G02*
X23193000Y-3566500I-40000J0D01*
G01*
X23193000Y-3566500D02*
G75*
G02*
X23273000Y-3566500I40000J0D01*
G01*
X23273000Y-4582500D02*
G75*
G02*
X23193000Y-4582500I-40000J0D01*
G01*
X23193000Y-4582500D02*
G75*
G02*
X23273000Y-4582500I40000J0D01*
G01*
X23369000Y-7832500D02*
G75*
G02*
X23289000Y-7832500I-40000J0D01*
G01*
X23289000Y-7832500D02*
G75*
G02*
X23369000Y-7832500I40000J0D01*
G01*
X23369000Y-8848500D02*
G75*
G02*
X23289000Y-8848500I-40000J0D01*
G01*
X23289000Y-8848500D02*
G75*
G02*
X23369000Y-8848500I40000J0D01*
G01*
X25673000Y-7882500D02*
G75*
G02*
X25593000Y-7882500I-40000J0D01*
G01*
X25593000Y-7882500D02*
G75*
G02*
X25673000Y-7882500I40000J0D01*
G01*
X25673000Y-8898500D02*
G75*
G02*
X25593000Y-8898500I-40000J0D01*
G01*
X25593000Y-8898500D02*
G75*
G02*
X25673000Y-8898500I40000J0D01*
G01*
X25694000Y-3534000D02*
G75*
G02*
X25614000Y-3534000I-40000J0D01*
G01*
X25614000Y-3534000D02*
G75*
G02*
X25694000Y-3534000I40000J0D01*
G01*
X25694000Y-4550000D02*
G75*
G02*
X25614000Y-4550000I-40000J0D01*
G01*
X25614000Y-4550000D02*
G75*
G02*
X25694000Y-4550000I40000J0D01*
G01*
X4725000Y-10795500D02*
X4725000Y-10885500D01*
X4680000Y-10840500D02*
X4770000Y-10840500D01*
X4958000Y-5812000D02*
X4958000Y-5902000D01*
X4913000Y-5857000D02*
X5003000Y-5857000D01*
X4979000Y-10795500D02*
X4979000Y-10885500D01*
X4934000Y-10840500D02*
X5024000Y-10840500D01*
X5212000Y-5812000D02*
X5212000Y-5902000D01*
X5167000Y-5857000D02*
X5257000Y-5857000D01*
X6575000Y-10795500D02*
X6575000Y-10885500D01*
X6530000Y-10840500D02*
X6620000Y-10840500D01*
X6758000Y-5897000D02*
X6758000Y-5987000D01*
X6713000Y-5942000D02*
X6803000Y-5942000D01*
X6829000Y-10795500D02*
X6829000Y-10885500D01*
X6784000Y-10840500D02*
X6874000Y-10840500D01*
X7012000Y-5897000D02*
X7012000Y-5987000D01*
X6967000Y-5942000D02*
X7057000Y-5942000D01*
X8704000Y-10828000D02*
X8704000Y-10918000D01*
X8659000Y-10873000D02*
X8749000Y-10873000D01*
X8925000Y-5887500D02*
X8925000Y-5977500D01*
X8880000Y-5932500D02*
X8970000Y-5932500D01*
X8958000Y-10828000D02*
X8958000Y-10918000D01*
X8913000Y-10873000D02*
X9003000Y-10873000D01*
X9179000Y-5887500D02*
X9179000Y-5977500D01*
X9134000Y-5932500D02*
X9224000Y-5932500D01*
X10904000Y-10878000D02*
X10904000Y-10968000D01*
X10859000Y-10923000D02*
X10949000Y-10923000D01*
X11158000Y-10878000D02*
X11158000Y-10968000D01*
X11113000Y-10923000D02*
X11203000Y-10923000D01*
X11308000Y-5862000D02*
X11308000Y-5952000D01*
X11263000Y-5907000D02*
X11353000Y-5907000D01*
X11562000Y-5862000D02*
X11562000Y-5952000D01*
X11517000Y-5907000D02*
X11607000Y-5907000D01*
X13275000Y-10795500D02*
X13275000Y-10885500D01*
X13230000Y-10840500D02*
X13320000Y-10840500D01*
X13529000Y-10795500D02*
X13529000Y-10885500D01*
X13484000Y-10840500D02*
X13574000Y-10840500D01*
X13808000Y-5879500D02*
X13808000Y-5969500D01*
X13763000Y-5924500D02*
X13853000Y-5924500D01*
X14062000Y-5879500D02*
X14062000Y-5969500D01*
X14017000Y-5924500D02*
X14107000Y-5924500D01*
X15875000Y-10737500D02*
X15875000Y-10827500D01*
X15830000Y-10782500D02*
X15920000Y-10782500D01*
X16129000Y-10737500D02*
X16129000Y-10827500D01*
X16084000Y-10782500D02*
X16174000Y-10782500D01*
X16279000Y-5829500D02*
X16279000Y-5919500D01*
X16234000Y-5874500D02*
X16324000Y-5874500D01*
X16533000Y-5829500D02*
X16533000Y-5919500D01*
X16488000Y-5874500D02*
X16578000Y-5874500D01*
X18225000Y-10737500D02*
X18225000Y-10827500D01*
X18180000Y-10782500D02*
X18270000Y-10782500D01*
X18479000Y-5847000D02*
X18479000Y-5937000D01*
X18434000Y-5892000D02*
X18524000Y-5892000D01*
X18479000Y-10737500D02*
X18479000Y-10827500D01*
X18434000Y-10782500D02*
X18524000Y-10782500D01*
X18733000Y-5847000D02*
X18733000Y-5937000D01*
X18688000Y-5892000D02*
X18778000Y-5892000D01*
X20704000Y-10720000D02*
X20704000Y-10810000D01*
X20659000Y-10765000D02*
X20749000Y-10765000D01*
X20850000Y-5847000D02*
X20850000Y-5937000D01*
X20805000Y-5892000D02*
X20895000Y-5892000D01*
X20958000Y-10720000D02*
X20958000Y-10810000D01*
X20913000Y-10765000D02*
X21003000Y-10765000D01*
X21104000Y-5847000D02*
X21104000Y-5937000D01*
X21059000Y-5892000D02*
X21149000Y-5892000D01*
X23058000Y-5812000D02*
X23058000Y-5902000D01*
X23013000Y-5857000D02*
X23103000Y-5857000D01*
X23104000Y-10720000D02*
X23104000Y-10810000D01*
X23059000Y-10765000D02*
X23149000Y-10765000D01*
X23312000Y-5812000D02*
X23312000Y-5902000D01*
X23267000Y-5857000D02*
X23357000Y-5857000D01*
X23358000Y-10720000D02*
X23358000Y-10810000D01*
X23313000Y-10765000D02*
X23403000Y-10765000D01*
X25408000Y-10770000D02*
X25408000Y-10860000D01*
X25363000Y-10815000D02*
X25453000Y-10815000D01*
X25529000Y-5829500D02*
X25529000Y-5919500D01*
X25484000Y-5874500D02*
X25574000Y-5874500D01*
X25662000Y-10770000D02*
X25662000Y-10860000D01*
X25617000Y-10815000D02*
X25707000Y-10815000D01*
X25783000Y-5829500D02*
X25783000Y-5919500D01*
X25738000Y-5874500D02*
X25828000Y-5874500D01*
D13*
X3265408Y-6245408D02*
X3265408Y-6114592D01*
X3134592Y-6114592D01*
X3134592Y-6245408D01*
X3265408Y-6245408D01*
X3265408Y-6715408D02*
X3265408Y-6584592D01*
X3134592Y-6584592D01*
X3134592Y-6715408D01*
X3265408Y-6715408D01*
X3265408Y-7185408D02*
X3265408Y-7054592D01*
X3134592Y-7054592D01*
X3134592Y-7185408D01*
X3265408Y-7185408D01*
D11*
X2600000Y-13200000D02*
X2700000Y-13100000D01*
X2600000Y-13000000D01*
X2500000Y-13100000D01*
X2600000Y-13200000D01*
X2900000Y-8800000D02*
X3000000Y-8700000D01*
X2900000Y-8600000D01*
X2800000Y-8700000D01*
X2900000Y-8800000D01*
X1933277Y-16113984D02*
X1933277Y-15913984D01*
X1933277Y-15913984D02*
X1980896Y-15913984D01*
X1980896Y-15913984D02*
X2009467Y-15923508D01*
X2009467Y-15923508D02*
X2028515Y-15942555D01*
X2028515Y-15942555D02*
X2038039Y-15961603D01*
X2038039Y-15961603D02*
X2047562Y-15999698D01*
X2047562Y-15999698D02*
X2047562Y-16028269D01*
X2047562Y-16028269D02*
X2038039Y-16066365D01*
X2038039Y-16066365D02*
X2028515Y-16085412D01*
X2028515Y-16085412D02*
X2009467Y-16104460D01*
X2009467Y-16104460D02*
X1980896Y-16113984D01*
X1980896Y-16113984D02*
X1933277Y-16113984D01*
X2133277Y-16113984D02*
X2133277Y-15980650D01*
X2133277Y-16018746D02*
X2142801Y-15999698D01*
X2142801Y-15999698D02*
X2152324Y-15990174D01*
X2152324Y-15990174D02*
X2171372Y-15980650D01*
X2171372Y-15980650D02*
X2190420Y-15980650D01*
X2257086Y-16113984D02*
X2257086Y-15980650D01*
X2257086Y-15913984D02*
X2247563Y-15923508D01*
X2247563Y-15923508D02*
X2257086Y-15933031D01*
X2257086Y-15933031D02*
X2266610Y-15923508D01*
X2266610Y-15923508D02*
X2257086Y-15913984D01*
X2257086Y-15913984D02*
X2257086Y-15933031D01*
X2380896Y-16113984D02*
X2361848Y-16104460D01*
X2361848Y-16104460D02*
X2352324Y-16085412D01*
X2352324Y-16085412D02*
X2352324Y-15913984D01*
X2485658Y-16113984D02*
X2466610Y-16104460D01*
X2466610Y-16104460D02*
X2457086Y-16085412D01*
X2457086Y-16085412D02*
X2457086Y-15913984D01*
X2714229Y-16113984D02*
X2714229Y-15913984D01*
X2714229Y-15913984D02*
X2780896Y-16056841D01*
X2780896Y-16056841D02*
X2847562Y-15913984D01*
X2847562Y-15913984D02*
X2847562Y-16113984D01*
X3028515Y-16113984D02*
X3028515Y-16009222D01*
X3028515Y-16009222D02*
X3018991Y-15990174D01*
X3018991Y-15990174D02*
X2999943Y-15980650D01*
X2999943Y-15980650D02*
X2961848Y-15980650D01*
X2961848Y-15980650D02*
X2942801Y-15990174D01*
X3028515Y-16104460D02*
X3009467Y-16113984D01*
X3009467Y-16113984D02*
X2961848Y-16113984D01*
X2961848Y-16113984D02*
X2942801Y-16104460D01*
X2942801Y-16104460D02*
X2933277Y-16085412D01*
X2933277Y-16085412D02*
X2933277Y-16066365D01*
X2933277Y-16066365D02*
X2942801Y-16047317D01*
X2942801Y-16047317D02*
X2961848Y-16037793D01*
X2961848Y-16037793D02*
X3009467Y-16037793D01*
X3009467Y-16037793D02*
X3028515Y-16028269D01*
X3123753Y-15980650D02*
X3123753Y-16180650D01*
X3123753Y-15990174D02*
X3142801Y-15980650D01*
X3142801Y-15980650D02*
X3180896Y-15980650D01*
X3180896Y-15980650D02*
X3199943Y-15990174D01*
X3199943Y-15990174D02*
X3209467Y-15999698D01*
X3209467Y-15999698D02*
X3218991Y-16018746D01*
X3218991Y-16018746D02*
X3218991Y-16075888D01*
X3218991Y-16075888D02*
X3209467Y-16094936D01*
X3209467Y-16094936D02*
X3199943Y-16104460D01*
X3199943Y-16104460D02*
X3180896Y-16113984D01*
X3180896Y-16113984D02*
X3142801Y-16113984D01*
X3142801Y-16113984D02*
X3123753Y-16104460D01*
X3304705Y-16094936D02*
X3314229Y-16104460D01*
X3314229Y-16104460D02*
X3304705Y-16113984D01*
X3304705Y-16113984D02*
X3295182Y-16104460D01*
X3295182Y-16104460D02*
X3304705Y-16094936D01*
X3304705Y-16094936D02*
X3304705Y-16113984D01*
X3304705Y-15990174D02*
X3314229Y-15999698D01*
X3314229Y-15999698D02*
X3304705Y-16009222D01*
X3304705Y-16009222D02*
X3295182Y-15999698D01*
X3295182Y-15999698D02*
X3304705Y-15990174D01*
X3304705Y-15990174D02*
X3304705Y-16009222D01*
D12*
X1596300Y-16404400D02*
X1672500Y-16480600D01*
X1672500Y-16404400D02*
X1596300Y-16480600D01*
D11*
X1971372Y-16333984D02*
X1990420Y-16333984D01*
X1990420Y-16333984D02*
X2009467Y-16343508D01*
X2009467Y-16343508D02*
X2018991Y-16353031D01*
X2018991Y-16353031D02*
X2028515Y-16372079D01*
X2028515Y-16372079D02*
X2038039Y-16410174D01*
X2038039Y-16410174D02*
X2038039Y-16457793D01*
X2038039Y-16457793D02*
X2028515Y-16495888D01*
X2028515Y-16495888D02*
X2018991Y-16514936D01*
X2018991Y-16514936D02*
X2009467Y-16524460D01*
X2009467Y-16524460D02*
X1990420Y-16533984D01*
X1990420Y-16533984D02*
X1971372Y-16533984D01*
X1971372Y-16533984D02*
X1952324Y-16524460D01*
X1952324Y-16524460D02*
X1942801Y-16514936D01*
X1942801Y-16514936D02*
X1933277Y-16495888D01*
X1933277Y-16495888D02*
X1923753Y-16457793D01*
X1923753Y-16457793D02*
X1923753Y-16410174D01*
X1923753Y-16410174D02*
X1933277Y-16372079D01*
X1933277Y-16372079D02*
X1942801Y-16353031D01*
X1942801Y-16353031D02*
X1952324Y-16343508D01*
X1952324Y-16343508D02*
X1971372Y-16333984D01*
X2123753Y-16514936D02*
X2133277Y-16524460D01*
X2133277Y-16524460D02*
X2123753Y-16533984D01*
X2123753Y-16533984D02*
X2114229Y-16524460D01*
X2114229Y-16524460D02*
X2123753Y-16514936D01*
X2123753Y-16514936D02*
X2123753Y-16533984D01*
X2199944Y-16333984D02*
X2333277Y-16333984D01*
X2333277Y-16333984D02*
X2247563Y-16533984D01*
X2495182Y-16333984D02*
X2457086Y-16333984D01*
X2457086Y-16333984D02*
X2438039Y-16343508D01*
X2438039Y-16343508D02*
X2428515Y-16353031D01*
X2428515Y-16353031D02*
X2409467Y-16381603D01*
X2409467Y-16381603D02*
X2399944Y-16419698D01*
X2399944Y-16419698D02*
X2399944Y-16495888D01*
X2399944Y-16495888D02*
X2409467Y-16514936D01*
X2409467Y-16514936D02*
X2418991Y-16524460D01*
X2418991Y-16524460D02*
X2438039Y-16533984D01*
X2438039Y-16533984D02*
X2476134Y-16533984D01*
X2476134Y-16533984D02*
X2495182Y-16524460D01*
X2495182Y-16524460D02*
X2504705Y-16514936D01*
X2504705Y-16514936D02*
X2514229Y-16495888D01*
X2514229Y-16495888D02*
X2514229Y-16448269D01*
X2514229Y-16448269D02*
X2504705Y-16429222D01*
X2504705Y-16429222D02*
X2495182Y-16419698D01*
X2495182Y-16419698D02*
X2476134Y-16410174D01*
X2476134Y-16410174D02*
X2438039Y-16410174D01*
X2438039Y-16410174D02*
X2418991Y-16419698D01*
X2418991Y-16419698D02*
X2409467Y-16429222D01*
X2409467Y-16429222D02*
X2399944Y-16448269D01*
X2590420Y-16353031D02*
X2599944Y-16343508D01*
X2599944Y-16343508D02*
X2618991Y-16333984D01*
X2618991Y-16333984D02*
X2666610Y-16333984D01*
X2666610Y-16333984D02*
X2685658Y-16343508D01*
X2685658Y-16343508D02*
X2695182Y-16353031D01*
X2695182Y-16353031D02*
X2704705Y-16372079D01*
X2704705Y-16372079D02*
X2704705Y-16391127D01*
X2704705Y-16391127D02*
X2695182Y-16419698D01*
X2695182Y-16419698D02*
X2580896Y-16533984D01*
X2580896Y-16533984D02*
X2704705Y-16533984D01*
X2790420Y-16533984D02*
X2790420Y-16400650D01*
X2790420Y-16419698D02*
X2799943Y-16410174D01*
X2799943Y-16410174D02*
X2818991Y-16400650D01*
X2818991Y-16400650D02*
X2847563Y-16400650D01*
X2847563Y-16400650D02*
X2866610Y-16410174D01*
X2866610Y-16410174D02*
X2876134Y-16429222D01*
X2876134Y-16429222D02*
X2876134Y-16533984D01*
X2876134Y-16429222D02*
X2885658Y-16410174D01*
X2885658Y-16410174D02*
X2904705Y-16400650D01*
X2904705Y-16400650D02*
X2933277Y-16400650D01*
X2933277Y-16400650D02*
X2952324Y-16410174D01*
X2952324Y-16410174D02*
X2961848Y-16429222D01*
X2961848Y-16429222D02*
X2961848Y-16533984D01*
X3057086Y-16533984D02*
X3057086Y-16400650D01*
X3057086Y-16419698D02*
X3066610Y-16410174D01*
X3066610Y-16410174D02*
X3085658Y-16400650D01*
X3085658Y-16400650D02*
X3114229Y-16400650D01*
X3114229Y-16400650D02*
X3133277Y-16410174D01*
X3133277Y-16410174D02*
X3142801Y-16429222D01*
X3142801Y-16429222D02*
X3142801Y-16533984D01*
X3142801Y-16429222D02*
X3152324Y-16410174D01*
X3152324Y-16410174D02*
X3171372Y-16400650D01*
X3171372Y-16400650D02*
X3199943Y-16400650D01*
X3199943Y-16400650D02*
X3218991Y-16410174D01*
X3218991Y-16410174D02*
X3228515Y-16429222D01*
X3228515Y-16429222D02*
X3228515Y-16533984D01*
X3618991Y-16324460D02*
X3447563Y-16581603D01*
X3876134Y-16333984D02*
X3895182Y-16333984D01*
X3895182Y-16333984D02*
X3914229Y-16343508D01*
X3914229Y-16343508D02*
X3923753Y-16353031D01*
X3923753Y-16353031D02*
X3933277Y-16372079D01*
X3933277Y-16372079D02*
X3942801Y-16410174D01*
X3942801Y-16410174D02*
X3942801Y-16457793D01*
X3942801Y-16457793D02*
X3933277Y-16495888D01*
X3933277Y-16495888D02*
X3923753Y-16514936D01*
X3923753Y-16514936D02*
X3914229Y-16524460D01*
X3914229Y-16524460D02*
X3895182Y-16533984D01*
X3895182Y-16533984D02*
X3876134Y-16533984D01*
X3876134Y-16533984D02*
X3857086Y-16524460D01*
X3857086Y-16524460D02*
X3847563Y-16514936D01*
X3847563Y-16514936D02*
X3838039Y-16495888D01*
X3838039Y-16495888D02*
X3828515Y-16457793D01*
X3828515Y-16457793D02*
X3828515Y-16410174D01*
X3828515Y-16410174D02*
X3838039Y-16372079D01*
X3838039Y-16372079D02*
X3847563Y-16353031D01*
X3847563Y-16353031D02*
X3857086Y-16343508D01*
X3857086Y-16343508D02*
X3876134Y-16333984D01*
X4028515Y-16514936D02*
X4038039Y-16524460D01*
X4038039Y-16524460D02*
X4028515Y-16533984D01*
X4028515Y-16533984D02*
X4018991Y-16524460D01*
X4018991Y-16524460D02*
X4028515Y-16514936D01*
X4028515Y-16514936D02*
X4028515Y-16533984D01*
X4161848Y-16333984D02*
X4180896Y-16333984D01*
X4180896Y-16333984D02*
X4199944Y-16343508D01*
X4199944Y-16343508D02*
X4209468Y-16353031D01*
X4209468Y-16353031D02*
X4218991Y-16372079D01*
X4218991Y-16372079D02*
X4228515Y-16410174D01*
X4228515Y-16410174D02*
X4228515Y-16457793D01*
X4228515Y-16457793D02*
X4218991Y-16495888D01*
X4218991Y-16495888D02*
X4209468Y-16514936D01*
X4209468Y-16514936D02*
X4199944Y-16524460D01*
X4199944Y-16524460D02*
X4180896Y-16533984D01*
X4180896Y-16533984D02*
X4161848Y-16533984D01*
X4161848Y-16533984D02*
X4142801Y-16524460D01*
X4142801Y-16524460D02*
X4133277Y-16514936D01*
X4133277Y-16514936D02*
X4123753Y-16495888D01*
X4123753Y-16495888D02*
X4114229Y-16457793D01*
X4114229Y-16457793D02*
X4114229Y-16410174D01*
X4114229Y-16410174D02*
X4123753Y-16372079D01*
X4123753Y-16372079D02*
X4133277Y-16353031D01*
X4133277Y-16353031D02*
X4142801Y-16343508D01*
X4142801Y-16343508D02*
X4161848Y-16333984D01*
X4295182Y-16333984D02*
X4418991Y-16333984D01*
X4418991Y-16333984D02*
X4352325Y-16410174D01*
X4352325Y-16410174D02*
X4380896Y-16410174D01*
X4380896Y-16410174D02*
X4399944Y-16419698D01*
X4399944Y-16419698D02*
X4409468Y-16429222D01*
X4409468Y-16429222D02*
X4418991Y-16448269D01*
X4418991Y-16448269D02*
X4418991Y-16495888D01*
X4418991Y-16495888D02*
X4409468Y-16514936D01*
X4409468Y-16514936D02*
X4399944Y-16524460D01*
X4399944Y-16524460D02*
X4380896Y-16533984D01*
X4380896Y-16533984D02*
X4323753Y-16533984D01*
X4323753Y-16533984D02*
X4304706Y-16524460D01*
X4304706Y-16524460D02*
X4295182Y-16514936D01*
X4542801Y-16333984D02*
X4561849Y-16333984D01*
X4561849Y-16333984D02*
X4580896Y-16343508D01*
X4580896Y-16343508D02*
X4590420Y-16353031D01*
X4590420Y-16353031D02*
X4599944Y-16372079D01*
X4599944Y-16372079D02*
X4609468Y-16410174D01*
X4609468Y-16410174D02*
X4609468Y-16457793D01*
X4609468Y-16457793D02*
X4599944Y-16495888D01*
X4599944Y-16495888D02*
X4590420Y-16514936D01*
X4590420Y-16514936D02*
X4580896Y-16524460D01*
X4580896Y-16524460D02*
X4561849Y-16533984D01*
X4561849Y-16533984D02*
X4542801Y-16533984D01*
X4542801Y-16533984D02*
X4523753Y-16524460D01*
X4523753Y-16524460D02*
X4514229Y-16514936D01*
X4514229Y-16514936D02*
X4504706Y-16495888D01*
X4504706Y-16495888D02*
X4495182Y-16457793D01*
X4495182Y-16457793D02*
X4495182Y-16410174D01*
X4495182Y-16410174D02*
X4504706Y-16372079D01*
X4504706Y-16372079D02*
X4514229Y-16353031D01*
X4514229Y-16353031D02*
X4523753Y-16343508D01*
X4523753Y-16343508D02*
X4542801Y-16333984D01*
X4733277Y-16333984D02*
X4752325Y-16333984D01*
X4752325Y-16333984D02*
X4771372Y-16343508D01*
X4771372Y-16343508D02*
X4780896Y-16353031D01*
X4780896Y-16353031D02*
X4790420Y-16372079D01*
X4790420Y-16372079D02*
X4799944Y-16410174D01*
X4799944Y-16410174D02*
X4799944Y-16457793D01*
X4799944Y-16457793D02*
X4790420Y-16495888D01*
X4790420Y-16495888D02*
X4780896Y-16514936D01*
X4780896Y-16514936D02*
X4771372Y-16524460D01*
X4771372Y-16524460D02*
X4752325Y-16533984D01*
X4752325Y-16533984D02*
X4733277Y-16533984D01*
X4733277Y-16533984D02*
X4714229Y-16524460D01*
X4714229Y-16524460D02*
X4704706Y-16514936D01*
X4704706Y-16514936D02*
X4695182Y-16495888D01*
X4695182Y-16495888D02*
X4685658Y-16457793D01*
X4685658Y-16457793D02*
X4685658Y-16410174D01*
X4685658Y-16410174D02*
X4695182Y-16372079D01*
X4695182Y-16372079D02*
X4704706Y-16353031D01*
X4704706Y-16353031D02*
X4714229Y-16343508D01*
X4714229Y-16343508D02*
X4733277Y-16333984D01*
X4876134Y-16333984D02*
X4876134Y-16372079D01*
X4952325Y-16333984D02*
X4952325Y-16372079D01*
X5247563Y-16610174D02*
X5238039Y-16600650D01*
X5238039Y-16600650D02*
X5218991Y-16572079D01*
X5218991Y-16572079D02*
X5209468Y-16553031D01*
X5209468Y-16553031D02*
X5199944Y-16524460D01*
X5199944Y-16524460D02*
X5190420Y-16476841D01*
X5190420Y-16476841D02*
X5190420Y-16438746D01*
X5190420Y-16438746D02*
X5199944Y-16391127D01*
X5199944Y-16391127D02*
X5209468Y-16362555D01*
X5209468Y-16362555D02*
X5218991Y-16343508D01*
X5218991Y-16343508D02*
X5238039Y-16314936D01*
X5238039Y-16314936D02*
X5247563Y-16305412D01*
X5314230Y-16353031D02*
X5323753Y-16343508D01*
X5323753Y-16343508D02*
X5342801Y-16333984D01*
X5342801Y-16333984D02*
X5390420Y-16333984D01*
X5390420Y-16333984D02*
X5409468Y-16343508D01*
X5409468Y-16343508D02*
X5418991Y-16353031D01*
X5418991Y-16353031D02*
X5428515Y-16372079D01*
X5428515Y-16372079D02*
X5428515Y-16391127D01*
X5428515Y-16391127D02*
X5418991Y-16419698D01*
X5418991Y-16419698D02*
X5304706Y-16533984D01*
X5304706Y-16533984D02*
X5428515Y-16533984D01*
X5666610Y-16533984D02*
X5666610Y-16333984D01*
X5752325Y-16533984D02*
X5752325Y-16429222D01*
X5752325Y-16429222D02*
X5742801Y-16410174D01*
X5742801Y-16410174D02*
X5723753Y-16400650D01*
X5723753Y-16400650D02*
X5695182Y-16400650D01*
X5695182Y-16400650D02*
X5676134Y-16410174D01*
X5676134Y-16410174D02*
X5666610Y-16419698D01*
X5876134Y-16533984D02*
X5857087Y-16524460D01*
X5857087Y-16524460D02*
X5847563Y-16514936D01*
X5847563Y-16514936D02*
X5838039Y-16495888D01*
X5838039Y-16495888D02*
X5838039Y-16438746D01*
X5838039Y-16438746D02*
X5847563Y-16419698D01*
X5847563Y-16419698D02*
X5857087Y-16410174D01*
X5857087Y-16410174D02*
X5876134Y-16400650D01*
X5876134Y-16400650D02*
X5904706Y-16400650D01*
X5904706Y-16400650D02*
X5923753Y-16410174D01*
X5923753Y-16410174D02*
X5933277Y-16419698D01*
X5933277Y-16419698D02*
X5942801Y-16438746D01*
X5942801Y-16438746D02*
X5942801Y-16495888D01*
X5942801Y-16495888D02*
X5933277Y-16514936D01*
X5933277Y-16514936D02*
X5923753Y-16524460D01*
X5923753Y-16524460D02*
X5904706Y-16533984D01*
X5904706Y-16533984D02*
X5876134Y-16533984D01*
X6057087Y-16533984D02*
X6038039Y-16524460D01*
X6038039Y-16524460D02*
X6028515Y-16505412D01*
X6028515Y-16505412D02*
X6028515Y-16333984D01*
X6209468Y-16524460D02*
X6190420Y-16533984D01*
X6190420Y-16533984D02*
X6152325Y-16533984D01*
X6152325Y-16533984D02*
X6133277Y-16524460D01*
X6133277Y-16524460D02*
X6123753Y-16505412D01*
X6123753Y-16505412D02*
X6123753Y-16429222D01*
X6123753Y-16429222D02*
X6133277Y-16410174D01*
X6133277Y-16410174D02*
X6152325Y-16400650D01*
X6152325Y-16400650D02*
X6190420Y-16400650D01*
X6190420Y-16400650D02*
X6209468Y-16410174D01*
X6209468Y-16410174D02*
X6218991Y-16429222D01*
X6218991Y-16429222D02*
X6218991Y-16448269D01*
X6218991Y-16448269D02*
X6123753Y-16467317D01*
X6295182Y-16524460D02*
X6314230Y-16533984D01*
X6314230Y-16533984D02*
X6352325Y-16533984D01*
X6352325Y-16533984D02*
X6371372Y-16524460D01*
X6371372Y-16524460D02*
X6380896Y-16505412D01*
X6380896Y-16505412D02*
X6380896Y-16495888D01*
X6380896Y-16495888D02*
X6371372Y-16476841D01*
X6371372Y-16476841D02*
X6352325Y-16467317D01*
X6352325Y-16467317D02*
X6323753Y-16467317D01*
X6323753Y-16467317D02*
X6304706Y-16457793D01*
X6304706Y-16457793D02*
X6295182Y-16438746D01*
X6295182Y-16438746D02*
X6295182Y-16429222D01*
X6295182Y-16429222D02*
X6304706Y-16410174D01*
X6304706Y-16410174D02*
X6323753Y-16400650D01*
X6323753Y-16400650D02*
X6352325Y-16400650D01*
X6352325Y-16400650D02*
X6371372Y-16410174D01*
X6447563Y-16610174D02*
X6457087Y-16600650D01*
X6457087Y-16600650D02*
X6476134Y-16572079D01*
X6476134Y-16572079D02*
X6485658Y-16553031D01*
X6485658Y-16553031D02*
X6495182Y-16524460D01*
X6495182Y-16524460D02*
X6504706Y-16476841D01*
X6504706Y-16476841D02*
X6504706Y-16438746D01*
X6504706Y-16438746D02*
X6495182Y-16391127D01*
X6495182Y-16391127D02*
X6485658Y-16362555D01*
X6485658Y-16362555D02*
X6476134Y-16343508D01*
X6476134Y-16343508D02*
X6457087Y-16314936D01*
X6457087Y-16314936D02*
X6447563Y-16305412D01*
D12*
X1672500Y-16706500D02*
G75*
G02*
X1592500Y-16706500I-40000J0D01*
G01*
X1592500Y-16706500D02*
G75*
G02*
X1672500Y-16706500I40000J0D01*
G01*
D11*
X1971372Y-16597984D02*
X1990420Y-16597984D01*
X1990420Y-16597984D02*
X2009467Y-16607508D01*
X2009467Y-16607508D02*
X2018991Y-16617031D01*
X2018991Y-16617031D02*
X2028515Y-16636079D01*
X2028515Y-16636079D02*
X2038039Y-16674174D01*
X2038039Y-16674174D02*
X2038039Y-16721793D01*
X2038039Y-16721793D02*
X2028515Y-16759888D01*
X2028515Y-16759888D02*
X2018991Y-16778936D01*
X2018991Y-16778936D02*
X2009467Y-16788460D01*
X2009467Y-16788460D02*
X1990420Y-16797984D01*
X1990420Y-16797984D02*
X1971372Y-16797984D01*
X1971372Y-16797984D02*
X1952324Y-16788460D01*
X1952324Y-16788460D02*
X1942801Y-16778936D01*
X1942801Y-16778936D02*
X1933277Y-16759888D01*
X1933277Y-16759888D02*
X1923753Y-16721793D01*
X1923753Y-16721793D02*
X1923753Y-16674174D01*
X1923753Y-16674174D02*
X1933277Y-16636079D01*
X1933277Y-16636079D02*
X1942801Y-16617031D01*
X1942801Y-16617031D02*
X1952324Y-16607508D01*
X1952324Y-16607508D02*
X1971372Y-16597984D01*
X2123753Y-16778936D02*
X2133277Y-16788460D01*
X2133277Y-16788460D02*
X2123753Y-16797984D01*
X2123753Y-16797984D02*
X2114229Y-16788460D01*
X2114229Y-16788460D02*
X2123753Y-16778936D01*
X2123753Y-16778936D02*
X2123753Y-16797984D01*
X2247563Y-16683698D02*
X2228515Y-16674174D01*
X2228515Y-16674174D02*
X2218991Y-16664650D01*
X2218991Y-16664650D02*
X2209467Y-16645603D01*
X2209467Y-16645603D02*
X2209467Y-16636079D01*
X2209467Y-16636079D02*
X2218991Y-16617031D01*
X2218991Y-16617031D02*
X2228515Y-16607508D01*
X2228515Y-16607508D02*
X2247563Y-16597984D01*
X2247563Y-16597984D02*
X2285658Y-16597984D01*
X2285658Y-16597984D02*
X2304705Y-16607508D01*
X2304705Y-16607508D02*
X2314229Y-16617031D01*
X2314229Y-16617031D02*
X2323753Y-16636079D01*
X2323753Y-16636079D02*
X2323753Y-16645603D01*
X2323753Y-16645603D02*
X2314229Y-16664650D01*
X2314229Y-16664650D02*
X2304705Y-16674174D01*
X2304705Y-16674174D02*
X2285658Y-16683698D01*
X2285658Y-16683698D02*
X2247563Y-16683698D01*
X2247563Y-16683698D02*
X2228515Y-16693222D01*
X2228515Y-16693222D02*
X2218991Y-16702746D01*
X2218991Y-16702746D02*
X2209467Y-16721793D01*
X2209467Y-16721793D02*
X2209467Y-16759888D01*
X2209467Y-16759888D02*
X2218991Y-16778936D01*
X2218991Y-16778936D02*
X2228515Y-16788460D01*
X2228515Y-16788460D02*
X2247563Y-16797984D01*
X2247563Y-16797984D02*
X2285658Y-16797984D01*
X2285658Y-16797984D02*
X2304705Y-16788460D01*
X2304705Y-16788460D02*
X2314229Y-16778936D01*
X2314229Y-16778936D02*
X2323753Y-16759888D01*
X2323753Y-16759888D02*
X2323753Y-16721793D01*
X2323753Y-16721793D02*
X2314229Y-16702746D01*
X2314229Y-16702746D02*
X2304705Y-16693222D01*
X2304705Y-16693222D02*
X2285658Y-16683698D01*
X2447563Y-16597984D02*
X2466610Y-16597984D01*
X2466610Y-16597984D02*
X2485658Y-16607508D01*
X2485658Y-16607508D02*
X2495182Y-16617031D01*
X2495182Y-16617031D02*
X2504705Y-16636079D01*
X2504705Y-16636079D02*
X2514229Y-16674174D01*
X2514229Y-16674174D02*
X2514229Y-16721793D01*
X2514229Y-16721793D02*
X2504705Y-16759888D01*
X2504705Y-16759888D02*
X2495182Y-16778936D01*
X2495182Y-16778936D02*
X2485658Y-16788460D01*
X2485658Y-16788460D02*
X2466610Y-16797984D01*
X2466610Y-16797984D02*
X2447563Y-16797984D01*
X2447563Y-16797984D02*
X2428515Y-16788460D01*
X2428515Y-16788460D02*
X2418991Y-16778936D01*
X2418991Y-16778936D02*
X2409467Y-16759888D01*
X2409467Y-16759888D02*
X2399944Y-16721793D01*
X2399944Y-16721793D02*
X2399944Y-16674174D01*
X2399944Y-16674174D02*
X2409467Y-16636079D01*
X2409467Y-16636079D02*
X2418991Y-16617031D01*
X2418991Y-16617031D02*
X2428515Y-16607508D01*
X2428515Y-16607508D02*
X2447563Y-16597984D01*
X2638039Y-16597984D02*
X2657086Y-16597984D01*
X2657086Y-16597984D02*
X2676134Y-16607508D01*
X2676134Y-16607508D02*
X2685658Y-16617031D01*
X2685658Y-16617031D02*
X2695182Y-16636079D01*
X2695182Y-16636079D02*
X2704705Y-16674174D01*
X2704705Y-16674174D02*
X2704705Y-16721793D01*
X2704705Y-16721793D02*
X2695182Y-16759888D01*
X2695182Y-16759888D02*
X2685658Y-16778936D01*
X2685658Y-16778936D02*
X2676134Y-16788460D01*
X2676134Y-16788460D02*
X2657086Y-16797984D01*
X2657086Y-16797984D02*
X2638039Y-16797984D01*
X2638039Y-16797984D02*
X2618991Y-16788460D01*
X2618991Y-16788460D02*
X2609467Y-16778936D01*
X2609467Y-16778936D02*
X2599944Y-16759888D01*
X2599944Y-16759888D02*
X2590420Y-16721793D01*
X2590420Y-16721793D02*
X2590420Y-16674174D01*
X2590420Y-16674174D02*
X2599944Y-16636079D01*
X2599944Y-16636079D02*
X2609467Y-16617031D01*
X2609467Y-16617031D02*
X2618991Y-16607508D01*
X2618991Y-16607508D02*
X2638039Y-16597984D01*
X2790420Y-16797984D02*
X2790420Y-16664650D01*
X2790420Y-16683698D02*
X2799943Y-16674174D01*
X2799943Y-16674174D02*
X2818991Y-16664650D01*
X2818991Y-16664650D02*
X2847563Y-16664650D01*
X2847563Y-16664650D02*
X2866610Y-16674174D01*
X2866610Y-16674174D02*
X2876134Y-16693222D01*
X2876134Y-16693222D02*
X2876134Y-16797984D01*
X2876134Y-16693222D02*
X2885658Y-16674174D01*
X2885658Y-16674174D02*
X2904705Y-16664650D01*
X2904705Y-16664650D02*
X2933277Y-16664650D01*
X2933277Y-16664650D02*
X2952324Y-16674174D01*
X2952324Y-16674174D02*
X2961848Y-16693222D01*
X2961848Y-16693222D02*
X2961848Y-16797984D01*
X3057086Y-16797984D02*
X3057086Y-16664650D01*
X3057086Y-16683698D02*
X3066610Y-16674174D01*
X3066610Y-16674174D02*
X3085658Y-16664650D01*
X3085658Y-16664650D02*
X3114229Y-16664650D01*
X3114229Y-16664650D02*
X3133277Y-16674174D01*
X3133277Y-16674174D02*
X3142801Y-16693222D01*
X3142801Y-16693222D02*
X3142801Y-16797984D01*
X3142801Y-16693222D02*
X3152324Y-16674174D01*
X3152324Y-16674174D02*
X3171372Y-16664650D01*
X3171372Y-16664650D02*
X3199943Y-16664650D01*
X3199943Y-16664650D02*
X3218991Y-16674174D01*
X3218991Y-16674174D02*
X3228515Y-16693222D01*
X3228515Y-16693222D02*
X3228515Y-16797984D01*
X3618991Y-16588460D02*
X3447563Y-16845603D01*
X3876134Y-16597984D02*
X3895182Y-16597984D01*
X3895182Y-16597984D02*
X3914229Y-16607508D01*
X3914229Y-16607508D02*
X3923753Y-16617031D01*
X3923753Y-16617031D02*
X3933277Y-16636079D01*
X3933277Y-16636079D02*
X3942801Y-16674174D01*
X3942801Y-16674174D02*
X3942801Y-16721793D01*
X3942801Y-16721793D02*
X3933277Y-16759888D01*
X3933277Y-16759888D02*
X3923753Y-16778936D01*
X3923753Y-16778936D02*
X3914229Y-16788460D01*
X3914229Y-16788460D02*
X3895182Y-16797984D01*
X3895182Y-16797984D02*
X3876134Y-16797984D01*
X3876134Y-16797984D02*
X3857086Y-16788460D01*
X3857086Y-16788460D02*
X3847563Y-16778936D01*
X3847563Y-16778936D02*
X3838039Y-16759888D01*
X3838039Y-16759888D02*
X3828515Y-16721793D01*
X3828515Y-16721793D02*
X3828515Y-16674174D01*
X3828515Y-16674174D02*
X3838039Y-16636079D01*
X3838039Y-16636079D02*
X3847563Y-16617031D01*
X3847563Y-16617031D02*
X3857086Y-16607508D01*
X3857086Y-16607508D02*
X3876134Y-16597984D01*
X4028515Y-16778936D02*
X4038039Y-16788460D01*
X4038039Y-16788460D02*
X4028515Y-16797984D01*
X4028515Y-16797984D02*
X4018991Y-16788460D01*
X4018991Y-16788460D02*
X4028515Y-16778936D01*
X4028515Y-16778936D02*
X4028515Y-16797984D01*
X4161848Y-16597984D02*
X4180896Y-16597984D01*
X4180896Y-16597984D02*
X4199944Y-16607508D01*
X4199944Y-16607508D02*
X4209468Y-16617031D01*
X4209468Y-16617031D02*
X4218991Y-16636079D01*
X4218991Y-16636079D02*
X4228515Y-16674174D01*
X4228515Y-16674174D02*
X4228515Y-16721793D01*
X4228515Y-16721793D02*
X4218991Y-16759888D01*
X4218991Y-16759888D02*
X4209468Y-16778936D01*
X4209468Y-16778936D02*
X4199944Y-16788460D01*
X4199944Y-16788460D02*
X4180896Y-16797984D01*
X4180896Y-16797984D02*
X4161848Y-16797984D01*
X4161848Y-16797984D02*
X4142801Y-16788460D01*
X4142801Y-16788460D02*
X4133277Y-16778936D01*
X4133277Y-16778936D02*
X4123753Y-16759888D01*
X4123753Y-16759888D02*
X4114229Y-16721793D01*
X4114229Y-16721793D02*
X4114229Y-16674174D01*
X4114229Y-16674174D02*
X4123753Y-16636079D01*
X4123753Y-16636079D02*
X4133277Y-16617031D01*
X4133277Y-16617031D02*
X4142801Y-16607508D01*
X4142801Y-16607508D02*
X4161848Y-16597984D01*
X4295182Y-16597984D02*
X4418991Y-16597984D01*
X4418991Y-16597984D02*
X4352325Y-16674174D01*
X4352325Y-16674174D02*
X4380896Y-16674174D01*
X4380896Y-16674174D02*
X4399944Y-16683698D01*
X4399944Y-16683698D02*
X4409468Y-16693222D01*
X4409468Y-16693222D02*
X4418991Y-16712269D01*
X4418991Y-16712269D02*
X4418991Y-16759888D01*
X4418991Y-16759888D02*
X4409468Y-16778936D01*
X4409468Y-16778936D02*
X4399944Y-16788460D01*
X4399944Y-16788460D02*
X4380896Y-16797984D01*
X4380896Y-16797984D02*
X4323753Y-16797984D01*
X4323753Y-16797984D02*
X4304706Y-16788460D01*
X4304706Y-16788460D02*
X4295182Y-16778936D01*
X4609468Y-16797984D02*
X4495182Y-16797984D01*
X4552325Y-16797984D02*
X4552325Y-16597984D01*
X4552325Y-16597984D02*
X4533277Y-16626555D01*
X4533277Y-16626555D02*
X4514229Y-16645603D01*
X4514229Y-16645603D02*
X4495182Y-16655127D01*
X4790420Y-16597984D02*
X4695182Y-16597984D01*
X4695182Y-16597984D02*
X4685658Y-16693222D01*
X4685658Y-16693222D02*
X4695182Y-16683698D01*
X4695182Y-16683698D02*
X4714229Y-16674174D01*
X4714229Y-16674174D02*
X4761849Y-16674174D01*
X4761849Y-16674174D02*
X4780896Y-16683698D01*
X4780896Y-16683698D02*
X4790420Y-16693222D01*
X4790420Y-16693222D02*
X4799944Y-16712269D01*
X4799944Y-16712269D02*
X4799944Y-16759888D01*
X4799944Y-16759888D02*
X4790420Y-16778936D01*
X4790420Y-16778936D02*
X4780896Y-16788460D01*
X4780896Y-16788460D02*
X4761849Y-16797984D01*
X4761849Y-16797984D02*
X4714229Y-16797984D01*
X4714229Y-16797984D02*
X4695182Y-16788460D01*
X4695182Y-16788460D02*
X4685658Y-16778936D01*
X4876134Y-16597984D02*
X4876134Y-16636079D01*
X4952325Y-16597984D02*
X4952325Y-16636079D01*
X5247563Y-16874174D02*
X5238039Y-16864650D01*
X5238039Y-16864650D02*
X5218991Y-16836079D01*
X5218991Y-16836079D02*
X5209468Y-16817031D01*
X5209468Y-16817031D02*
X5199944Y-16788460D01*
X5199944Y-16788460D02*
X5190420Y-16740841D01*
X5190420Y-16740841D02*
X5190420Y-16702746D01*
X5190420Y-16702746D02*
X5199944Y-16655127D01*
X5199944Y-16655127D02*
X5209468Y-16626555D01*
X5209468Y-16626555D02*
X5218991Y-16607508D01*
X5218991Y-16607508D02*
X5238039Y-16578936D01*
X5238039Y-16578936D02*
X5247563Y-16569412D01*
X5409468Y-16664650D02*
X5409468Y-16797984D01*
X5361849Y-16588460D02*
X5314230Y-16731317D01*
X5314230Y-16731317D02*
X5438039Y-16731317D01*
X5504706Y-16617031D02*
X5514230Y-16607508D01*
X5514230Y-16607508D02*
X5533277Y-16597984D01*
X5533277Y-16597984D02*
X5580896Y-16597984D01*
X5580896Y-16597984D02*
X5599944Y-16607508D01*
X5599944Y-16607508D02*
X5609468Y-16617031D01*
X5609468Y-16617031D02*
X5618991Y-16636079D01*
X5618991Y-16636079D02*
X5618991Y-16655127D01*
X5618991Y-16655127D02*
X5609468Y-16683698D01*
X5609468Y-16683698D02*
X5495182Y-16797984D01*
X5495182Y-16797984D02*
X5618991Y-16797984D01*
X5857087Y-16797984D02*
X5857087Y-16597984D01*
X5942801Y-16797984D02*
X5942801Y-16693222D01*
X5942801Y-16693222D02*
X5933277Y-16674174D01*
X5933277Y-16674174D02*
X5914230Y-16664650D01*
X5914230Y-16664650D02*
X5885658Y-16664650D01*
X5885658Y-16664650D02*
X5866610Y-16674174D01*
X5866610Y-16674174D02*
X5857087Y-16683698D01*
X6066610Y-16797984D02*
X6047563Y-16788460D01*
X6047563Y-16788460D02*
X6038039Y-16778936D01*
X6038039Y-16778936D02*
X6028515Y-16759888D01*
X6028515Y-16759888D02*
X6028515Y-16702746D01*
X6028515Y-16702746D02*
X6038039Y-16683698D01*
X6038039Y-16683698D02*
X6047563Y-16674174D01*
X6047563Y-16674174D02*
X6066610Y-16664650D01*
X6066610Y-16664650D02*
X6095182Y-16664650D01*
X6095182Y-16664650D02*
X6114230Y-16674174D01*
X6114230Y-16674174D02*
X6123753Y-16683698D01*
X6123753Y-16683698D02*
X6133277Y-16702746D01*
X6133277Y-16702746D02*
X6133277Y-16759888D01*
X6133277Y-16759888D02*
X6123753Y-16778936D01*
X6123753Y-16778936D02*
X6114230Y-16788460D01*
X6114230Y-16788460D02*
X6095182Y-16797984D01*
X6095182Y-16797984D02*
X6066610Y-16797984D01*
X6247563Y-16797984D02*
X6228515Y-16788460D01*
X6228515Y-16788460D02*
X6218991Y-16769412D01*
X6218991Y-16769412D02*
X6218991Y-16597984D01*
X6399944Y-16788460D02*
X6380896Y-16797984D01*
X6380896Y-16797984D02*
X6342801Y-16797984D01*
X6342801Y-16797984D02*
X6323753Y-16788460D01*
X6323753Y-16788460D02*
X6314230Y-16769412D01*
X6314230Y-16769412D02*
X6314230Y-16693222D01*
X6314230Y-16693222D02*
X6323753Y-16674174D01*
X6323753Y-16674174D02*
X6342801Y-16664650D01*
X6342801Y-16664650D02*
X6380896Y-16664650D01*
X6380896Y-16664650D02*
X6399944Y-16674174D01*
X6399944Y-16674174D02*
X6409468Y-16693222D01*
X6409468Y-16693222D02*
X6409468Y-16712269D01*
X6409468Y-16712269D02*
X6314230Y-16731317D01*
X6485658Y-16788460D02*
X6504706Y-16797984D01*
X6504706Y-16797984D02*
X6542801Y-16797984D01*
X6542801Y-16797984D02*
X6561849Y-16788460D01*
X6561849Y-16788460D02*
X6571372Y-16769412D01*
X6571372Y-16769412D02*
X6571372Y-16759888D01*
X6571372Y-16759888D02*
X6561849Y-16740841D01*
X6561849Y-16740841D02*
X6542801Y-16731317D01*
X6542801Y-16731317D02*
X6514230Y-16731317D01*
X6514230Y-16731317D02*
X6495182Y-16721793D01*
X6495182Y-16721793D02*
X6485658Y-16702746D01*
X6485658Y-16702746D02*
X6485658Y-16693222D01*
X6485658Y-16693222D02*
X6495182Y-16674174D01*
X6495182Y-16674174D02*
X6514230Y-16664650D01*
X6514230Y-16664650D02*
X6542801Y-16664650D01*
X6542801Y-16664650D02*
X6561849Y-16674174D01*
X6638039Y-16874174D02*
X6647563Y-16864650D01*
X6647563Y-16864650D02*
X6666611Y-16836079D01*
X6666611Y-16836079D02*
X6676134Y-16817031D01*
X6676134Y-16817031D02*
X6685658Y-16788460D01*
X6685658Y-16788460D02*
X6695182Y-16740841D01*
X6695182Y-16740841D02*
X6695182Y-16702746D01*
X6695182Y-16702746D02*
X6685658Y-16655127D01*
X6685658Y-16655127D02*
X6676134Y-16626555D01*
X6676134Y-16626555D02*
X6666611Y-16607508D01*
X6666611Y-16607508D02*
X6647563Y-16578936D01*
X6647563Y-16578936D02*
X6638039Y-16569412D01*
D12*
X1627500Y-16925500D02*
X1627500Y-17015500D01*
X1582500Y-16970500D02*
X1672500Y-16970500D01*
D11*
X1971372Y-16861984D02*
X1990420Y-16861984D01*
X1990420Y-16861984D02*
X2009467Y-16871508D01*
X2009467Y-16871508D02*
X2018991Y-16881031D01*
X2018991Y-16881031D02*
X2028515Y-16900079D01*
X2028515Y-16900079D02*
X2038039Y-16938174D01*
X2038039Y-16938174D02*
X2038039Y-16985793D01*
X2038039Y-16985793D02*
X2028515Y-17023889D01*
X2028515Y-17023889D02*
X2018991Y-17042936D01*
X2018991Y-17042936D02*
X2009467Y-17052460D01*
X2009467Y-17052460D02*
X1990420Y-17061984D01*
X1990420Y-17061984D02*
X1971372Y-17061984D01*
X1971372Y-17061984D02*
X1952324Y-17052460D01*
X1952324Y-17052460D02*
X1942801Y-17042936D01*
X1942801Y-17042936D02*
X1933277Y-17023889D01*
X1933277Y-17023889D02*
X1923753Y-16985793D01*
X1923753Y-16985793D02*
X1923753Y-16938174D01*
X1923753Y-16938174D02*
X1933277Y-16900079D01*
X1933277Y-16900079D02*
X1942801Y-16881031D01*
X1942801Y-16881031D02*
X1952324Y-16871508D01*
X1952324Y-16871508D02*
X1971372Y-16861984D01*
X2123753Y-17042936D02*
X2133277Y-17052460D01*
X2133277Y-17052460D02*
X2123753Y-17061984D01*
X2123753Y-17061984D02*
X2114229Y-17052460D01*
X2114229Y-17052460D02*
X2123753Y-17042936D01*
X2123753Y-17042936D02*
X2123753Y-17061984D01*
X2228515Y-17061984D02*
X2266610Y-17061984D01*
X2266610Y-17061984D02*
X2285658Y-17052460D01*
X2285658Y-17052460D02*
X2295182Y-17042936D01*
X2295182Y-17042936D02*
X2314229Y-17014365D01*
X2314229Y-17014365D02*
X2323753Y-16976270D01*
X2323753Y-16976270D02*
X2323753Y-16900079D01*
X2323753Y-16900079D02*
X2314229Y-16881031D01*
X2314229Y-16881031D02*
X2304705Y-16871508D01*
X2304705Y-16871508D02*
X2285658Y-16861984D01*
X2285658Y-16861984D02*
X2247563Y-16861984D01*
X2247563Y-16861984D02*
X2228515Y-16871508D01*
X2228515Y-16871508D02*
X2218991Y-16881031D01*
X2218991Y-16881031D02*
X2209467Y-16900079D01*
X2209467Y-16900079D02*
X2209467Y-16947698D01*
X2209467Y-16947698D02*
X2218991Y-16966746D01*
X2218991Y-16966746D02*
X2228515Y-16976270D01*
X2228515Y-16976270D02*
X2247563Y-16985793D01*
X2247563Y-16985793D02*
X2285658Y-16985793D01*
X2285658Y-16985793D02*
X2304705Y-16976270D01*
X2304705Y-16976270D02*
X2314229Y-16966746D01*
X2314229Y-16966746D02*
X2323753Y-16947698D01*
X2447563Y-16861984D02*
X2466610Y-16861984D01*
X2466610Y-16861984D02*
X2485658Y-16871508D01*
X2485658Y-16871508D02*
X2495182Y-16881031D01*
X2495182Y-16881031D02*
X2504705Y-16900079D01*
X2504705Y-16900079D02*
X2514229Y-16938174D01*
X2514229Y-16938174D02*
X2514229Y-16985793D01*
X2514229Y-16985793D02*
X2504705Y-17023889D01*
X2504705Y-17023889D02*
X2495182Y-17042936D01*
X2495182Y-17042936D02*
X2485658Y-17052460D01*
X2485658Y-17052460D02*
X2466610Y-17061984D01*
X2466610Y-17061984D02*
X2447563Y-17061984D01*
X2447563Y-17061984D02*
X2428515Y-17052460D01*
X2428515Y-17052460D02*
X2418991Y-17042936D01*
X2418991Y-17042936D02*
X2409467Y-17023889D01*
X2409467Y-17023889D02*
X2399944Y-16985793D01*
X2399944Y-16985793D02*
X2399944Y-16938174D01*
X2399944Y-16938174D02*
X2409467Y-16900079D01*
X2409467Y-16900079D02*
X2418991Y-16881031D01*
X2418991Y-16881031D02*
X2428515Y-16871508D01*
X2428515Y-16871508D02*
X2447563Y-16861984D01*
X2638039Y-16861984D02*
X2657086Y-16861984D01*
X2657086Y-16861984D02*
X2676134Y-16871508D01*
X2676134Y-16871508D02*
X2685658Y-16881031D01*
X2685658Y-16881031D02*
X2695182Y-16900079D01*
X2695182Y-16900079D02*
X2704705Y-16938174D01*
X2704705Y-16938174D02*
X2704705Y-16985793D01*
X2704705Y-16985793D02*
X2695182Y-17023889D01*
X2695182Y-17023889D02*
X2685658Y-17042936D01*
X2685658Y-17042936D02*
X2676134Y-17052460D01*
X2676134Y-17052460D02*
X2657086Y-17061984D01*
X2657086Y-17061984D02*
X2638039Y-17061984D01*
X2638039Y-17061984D02*
X2618991Y-17052460D01*
X2618991Y-17052460D02*
X2609467Y-17042936D01*
X2609467Y-17042936D02*
X2599944Y-17023889D01*
X2599944Y-17023889D02*
X2590420Y-16985793D01*
X2590420Y-16985793D02*
X2590420Y-16938174D01*
X2590420Y-16938174D02*
X2599944Y-16900079D01*
X2599944Y-16900079D02*
X2609467Y-16881031D01*
X2609467Y-16881031D02*
X2618991Y-16871508D01*
X2618991Y-16871508D02*
X2638039Y-16861984D01*
X2790420Y-17061984D02*
X2790420Y-16928650D01*
X2790420Y-16947698D02*
X2799943Y-16938174D01*
X2799943Y-16938174D02*
X2818991Y-16928650D01*
X2818991Y-16928650D02*
X2847563Y-16928650D01*
X2847563Y-16928650D02*
X2866610Y-16938174D01*
X2866610Y-16938174D02*
X2876134Y-16957222D01*
X2876134Y-16957222D02*
X2876134Y-17061984D01*
X2876134Y-16957222D02*
X2885658Y-16938174D01*
X2885658Y-16938174D02*
X2904705Y-16928650D01*
X2904705Y-16928650D02*
X2933277Y-16928650D01*
X2933277Y-16928650D02*
X2952324Y-16938174D01*
X2952324Y-16938174D02*
X2961848Y-16957222D01*
X2961848Y-16957222D02*
X2961848Y-17061984D01*
X3057086Y-17061984D02*
X3057086Y-16928650D01*
X3057086Y-16947698D02*
X3066610Y-16938174D01*
X3066610Y-16938174D02*
X3085658Y-16928650D01*
X3085658Y-16928650D02*
X3114229Y-16928650D01*
X3114229Y-16928650D02*
X3133277Y-16938174D01*
X3133277Y-16938174D02*
X3142801Y-16957222D01*
X3142801Y-16957222D02*
X3142801Y-17061984D01*
X3142801Y-16957222D02*
X3152324Y-16938174D01*
X3152324Y-16938174D02*
X3171372Y-16928650D01*
X3171372Y-16928650D02*
X3199943Y-16928650D01*
X3199943Y-16928650D02*
X3218991Y-16938174D01*
X3218991Y-16938174D02*
X3228515Y-16957222D01*
X3228515Y-16957222D02*
X3228515Y-17061984D01*
X3618991Y-16852460D02*
X3447563Y-17109603D01*
X3876134Y-16861984D02*
X3895182Y-16861984D01*
X3895182Y-16861984D02*
X3914229Y-16871508D01*
X3914229Y-16871508D02*
X3923753Y-16881031D01*
X3923753Y-16881031D02*
X3933277Y-16900079D01*
X3933277Y-16900079D02*
X3942801Y-16938174D01*
X3942801Y-16938174D02*
X3942801Y-16985793D01*
X3942801Y-16985793D02*
X3933277Y-17023889D01*
X3933277Y-17023889D02*
X3923753Y-17042936D01*
X3923753Y-17042936D02*
X3914229Y-17052460D01*
X3914229Y-17052460D02*
X3895182Y-17061984D01*
X3895182Y-17061984D02*
X3876134Y-17061984D01*
X3876134Y-17061984D02*
X3857086Y-17052460D01*
X3857086Y-17052460D02*
X3847563Y-17042936D01*
X3847563Y-17042936D02*
X3838039Y-17023889D01*
X3838039Y-17023889D02*
X3828515Y-16985793D01*
X3828515Y-16985793D02*
X3828515Y-16938174D01*
X3828515Y-16938174D02*
X3838039Y-16900079D01*
X3838039Y-16900079D02*
X3847563Y-16881031D01*
X3847563Y-16881031D02*
X3857086Y-16871508D01*
X3857086Y-16871508D02*
X3876134Y-16861984D01*
X4028515Y-17042936D02*
X4038039Y-17052460D01*
X4038039Y-17052460D02*
X4028515Y-17061984D01*
X4028515Y-17061984D02*
X4018991Y-17052460D01*
X4018991Y-17052460D02*
X4028515Y-17042936D01*
X4028515Y-17042936D02*
X4028515Y-17061984D01*
X4161848Y-16861984D02*
X4180896Y-16861984D01*
X4180896Y-16861984D02*
X4199944Y-16871508D01*
X4199944Y-16871508D02*
X4209468Y-16881031D01*
X4209468Y-16881031D02*
X4218991Y-16900079D01*
X4218991Y-16900079D02*
X4228515Y-16938174D01*
X4228515Y-16938174D02*
X4228515Y-16985793D01*
X4228515Y-16985793D02*
X4218991Y-17023889D01*
X4218991Y-17023889D02*
X4209468Y-17042936D01*
X4209468Y-17042936D02*
X4199944Y-17052460D01*
X4199944Y-17052460D02*
X4180896Y-17061984D01*
X4180896Y-17061984D02*
X4161848Y-17061984D01*
X4161848Y-17061984D02*
X4142801Y-17052460D01*
X4142801Y-17052460D02*
X4133277Y-17042936D01*
X4133277Y-17042936D02*
X4123753Y-17023889D01*
X4123753Y-17023889D02*
X4114229Y-16985793D01*
X4114229Y-16985793D02*
X4114229Y-16938174D01*
X4114229Y-16938174D02*
X4123753Y-16900079D01*
X4123753Y-16900079D02*
X4133277Y-16881031D01*
X4133277Y-16881031D02*
X4142801Y-16871508D01*
X4142801Y-16871508D02*
X4161848Y-16861984D01*
X4295182Y-16861984D02*
X4418991Y-16861984D01*
X4418991Y-16861984D02*
X4352325Y-16938174D01*
X4352325Y-16938174D02*
X4380896Y-16938174D01*
X4380896Y-16938174D02*
X4399944Y-16947698D01*
X4399944Y-16947698D02*
X4409468Y-16957222D01*
X4409468Y-16957222D02*
X4418991Y-16976270D01*
X4418991Y-16976270D02*
X4418991Y-17023889D01*
X4418991Y-17023889D02*
X4409468Y-17042936D01*
X4409468Y-17042936D02*
X4399944Y-17052460D01*
X4399944Y-17052460D02*
X4380896Y-17061984D01*
X4380896Y-17061984D02*
X4323753Y-17061984D01*
X4323753Y-17061984D02*
X4304706Y-17052460D01*
X4304706Y-17052460D02*
X4295182Y-17042936D01*
X4599944Y-16861984D02*
X4504706Y-16861984D01*
X4504706Y-16861984D02*
X4495182Y-16957222D01*
X4495182Y-16957222D02*
X4504706Y-16947698D01*
X4504706Y-16947698D02*
X4523753Y-16938174D01*
X4523753Y-16938174D02*
X4571372Y-16938174D01*
X4571372Y-16938174D02*
X4590420Y-16947698D01*
X4590420Y-16947698D02*
X4599944Y-16957222D01*
X4599944Y-16957222D02*
X4609468Y-16976270D01*
X4609468Y-16976270D02*
X4609468Y-17023889D01*
X4609468Y-17023889D02*
X4599944Y-17042936D01*
X4599944Y-17042936D02*
X4590420Y-17052460D01*
X4590420Y-17052460D02*
X4571372Y-17061984D01*
X4571372Y-17061984D02*
X4523753Y-17061984D01*
X4523753Y-17061984D02*
X4504706Y-17052460D01*
X4504706Y-17052460D02*
X4495182Y-17042936D01*
X4780896Y-16928650D02*
X4780896Y-17061984D01*
X4733277Y-16852460D02*
X4685658Y-16995317D01*
X4685658Y-16995317D02*
X4809468Y-16995317D01*
X4876134Y-16861984D02*
X4876134Y-16900079D01*
X4952325Y-16861984D02*
X4952325Y-16900079D01*
X5247563Y-17138174D02*
X5238039Y-17128650D01*
X5238039Y-17128650D02*
X5218991Y-17100079D01*
X5218991Y-17100079D02*
X5209468Y-17081031D01*
X5209468Y-17081031D02*
X5199944Y-17052460D01*
X5199944Y-17052460D02*
X5190420Y-17004841D01*
X5190420Y-17004841D02*
X5190420Y-16966746D01*
X5190420Y-16966746D02*
X5199944Y-16919127D01*
X5199944Y-16919127D02*
X5209468Y-16890555D01*
X5209468Y-16890555D02*
X5218991Y-16871508D01*
X5218991Y-16871508D02*
X5238039Y-16842936D01*
X5238039Y-16842936D02*
X5247563Y-16833412D01*
X5409468Y-16928650D02*
X5409468Y-17061984D01*
X5361849Y-16852460D02*
X5314230Y-16995317D01*
X5314230Y-16995317D02*
X5438039Y-16995317D01*
X5552325Y-16861984D02*
X5571372Y-16861984D01*
X5571372Y-16861984D02*
X5590420Y-16871508D01*
X5590420Y-16871508D02*
X5599944Y-16881031D01*
X5599944Y-16881031D02*
X5609468Y-16900079D01*
X5609468Y-16900079D02*
X5618991Y-16938174D01*
X5618991Y-16938174D02*
X5618991Y-16985793D01*
X5618991Y-16985793D02*
X5609468Y-17023889D01*
X5609468Y-17023889D02*
X5599944Y-17042936D01*
X5599944Y-17042936D02*
X5590420Y-17052460D01*
X5590420Y-17052460D02*
X5571372Y-17061984D01*
X5571372Y-17061984D02*
X5552325Y-17061984D01*
X5552325Y-17061984D02*
X5533277Y-17052460D01*
X5533277Y-17052460D02*
X5523753Y-17042936D01*
X5523753Y-17042936D02*
X5514230Y-17023889D01*
X5514230Y-17023889D02*
X5504706Y-16985793D01*
X5504706Y-16985793D02*
X5504706Y-16938174D01*
X5504706Y-16938174D02*
X5514230Y-16900079D01*
X5514230Y-16900079D02*
X5523753Y-16881031D01*
X5523753Y-16881031D02*
X5533277Y-16871508D01*
X5533277Y-16871508D02*
X5552325Y-16861984D01*
X5857087Y-17061984D02*
X5857087Y-16861984D01*
X5942801Y-17061984D02*
X5942801Y-16957222D01*
X5942801Y-16957222D02*
X5933277Y-16938174D01*
X5933277Y-16938174D02*
X5914230Y-16928650D01*
X5914230Y-16928650D02*
X5885658Y-16928650D01*
X5885658Y-16928650D02*
X5866610Y-16938174D01*
X5866610Y-16938174D02*
X5857087Y-16947698D01*
X6066610Y-17061984D02*
X6047563Y-17052460D01*
X6047563Y-17052460D02*
X6038039Y-17042936D01*
X6038039Y-17042936D02*
X6028515Y-17023889D01*
X6028515Y-17023889D02*
X6028515Y-16966746D01*
X6028515Y-16966746D02*
X6038039Y-16947698D01*
X6038039Y-16947698D02*
X6047563Y-16938174D01*
X6047563Y-16938174D02*
X6066610Y-16928650D01*
X6066610Y-16928650D02*
X6095182Y-16928650D01*
X6095182Y-16928650D02*
X6114230Y-16938174D01*
X6114230Y-16938174D02*
X6123753Y-16947698D01*
X6123753Y-16947698D02*
X6133277Y-16966746D01*
X6133277Y-16966746D02*
X6133277Y-17023889D01*
X6133277Y-17023889D02*
X6123753Y-17042936D01*
X6123753Y-17042936D02*
X6114230Y-17052460D01*
X6114230Y-17052460D02*
X6095182Y-17061984D01*
X6095182Y-17061984D02*
X6066610Y-17061984D01*
X6247563Y-17061984D02*
X6228515Y-17052460D01*
X6228515Y-17052460D02*
X6218991Y-17033412D01*
X6218991Y-17033412D02*
X6218991Y-16861984D01*
X6399944Y-17052460D02*
X6380896Y-17061984D01*
X6380896Y-17061984D02*
X6342801Y-17061984D01*
X6342801Y-17061984D02*
X6323753Y-17052460D01*
X6323753Y-17052460D02*
X6314230Y-17033412D01*
X6314230Y-17033412D02*
X6314230Y-16957222D01*
X6314230Y-16957222D02*
X6323753Y-16938174D01*
X6323753Y-16938174D02*
X6342801Y-16928650D01*
X6342801Y-16928650D02*
X6380896Y-16928650D01*
X6380896Y-16928650D02*
X6399944Y-16938174D01*
X6399944Y-16938174D02*
X6409468Y-16957222D01*
X6409468Y-16957222D02*
X6409468Y-16976270D01*
X6409468Y-16976270D02*
X6314230Y-16995317D01*
X6485658Y-17052460D02*
X6504706Y-17061984D01*
X6504706Y-17061984D02*
X6542801Y-17061984D01*
X6542801Y-17061984D02*
X6561849Y-17052460D01*
X6561849Y-17052460D02*
X6571372Y-17033412D01*
X6571372Y-17033412D02*
X6571372Y-17023889D01*
X6571372Y-17023889D02*
X6561849Y-17004841D01*
X6561849Y-17004841D02*
X6542801Y-16995317D01*
X6542801Y-16995317D02*
X6514230Y-16995317D01*
X6514230Y-16995317D02*
X6495182Y-16985793D01*
X6495182Y-16985793D02*
X6485658Y-16966746D01*
X6485658Y-16966746D02*
X6485658Y-16957222D01*
X6485658Y-16957222D02*
X6495182Y-16938174D01*
X6495182Y-16938174D02*
X6514230Y-16928650D01*
X6514230Y-16928650D02*
X6542801Y-16928650D01*
X6542801Y-16928650D02*
X6561849Y-16938174D01*
X6638039Y-17138174D02*
X6647563Y-17128650D01*
X6647563Y-17128650D02*
X6666611Y-17100079D01*
X6666611Y-17100079D02*
X6676134Y-17081031D01*
X6676134Y-17081031D02*
X6685658Y-17052460D01*
X6685658Y-17052460D02*
X6695182Y-17004841D01*
X6695182Y-17004841D02*
X6695182Y-16966746D01*
X6695182Y-16966746D02*
X6685658Y-16919127D01*
X6685658Y-16919127D02*
X6676134Y-16890555D01*
X6676134Y-16890555D02*
X6666611Y-16871508D01*
X6666611Y-16871508D02*
X6647563Y-16842936D01*
X6647563Y-16842936D02*
X6638039Y-16833412D01*
D13*
X1645408Y-17299908D02*
X1645408Y-17169092D01*
X1514592Y-17169092D01*
X1514592Y-17299908D01*
X1645408Y-17299908D01*
D11*
X2038039Y-17325984D02*
X1923753Y-17325984D01*
X1980896Y-17325984D02*
X1980896Y-17125984D01*
X1980896Y-17125984D02*
X1961848Y-17154555D01*
X1961848Y-17154555D02*
X1942801Y-17173603D01*
X1942801Y-17173603D02*
X1923753Y-17183127D01*
X2123753Y-17306936D02*
X2133277Y-17316460D01*
X2133277Y-17316460D02*
X2123753Y-17325984D01*
X2123753Y-17325984D02*
X2114229Y-17316460D01*
X2114229Y-17316460D02*
X2123753Y-17306936D01*
X2123753Y-17306936D02*
X2123753Y-17325984D01*
X2247563Y-17211698D02*
X2228515Y-17202174D01*
X2228515Y-17202174D02*
X2218991Y-17192650D01*
X2218991Y-17192650D02*
X2209467Y-17173603D01*
X2209467Y-17173603D02*
X2209467Y-17164079D01*
X2209467Y-17164079D02*
X2218991Y-17145031D01*
X2218991Y-17145031D02*
X2228515Y-17135508D01*
X2228515Y-17135508D02*
X2247563Y-17125984D01*
X2247563Y-17125984D02*
X2285658Y-17125984D01*
X2285658Y-17125984D02*
X2304705Y-17135508D01*
X2304705Y-17135508D02*
X2314229Y-17145031D01*
X2314229Y-17145031D02*
X2323753Y-17164079D01*
X2323753Y-17164079D02*
X2323753Y-17173603D01*
X2323753Y-17173603D02*
X2314229Y-17192650D01*
X2314229Y-17192650D02*
X2304705Y-17202174D01*
X2304705Y-17202174D02*
X2285658Y-17211698D01*
X2285658Y-17211698D02*
X2247563Y-17211698D01*
X2247563Y-17211698D02*
X2228515Y-17221222D01*
X2228515Y-17221222D02*
X2218991Y-17230746D01*
X2218991Y-17230746D02*
X2209467Y-17249793D01*
X2209467Y-17249793D02*
X2209467Y-17287889D01*
X2209467Y-17287889D02*
X2218991Y-17306936D01*
X2218991Y-17306936D02*
X2228515Y-17316460D01*
X2228515Y-17316460D02*
X2247563Y-17325984D01*
X2247563Y-17325984D02*
X2285658Y-17325984D01*
X2285658Y-17325984D02*
X2304705Y-17316460D01*
X2304705Y-17316460D02*
X2314229Y-17306936D01*
X2314229Y-17306936D02*
X2323753Y-17287889D01*
X2323753Y-17287889D02*
X2323753Y-17249793D01*
X2323753Y-17249793D02*
X2314229Y-17230746D01*
X2314229Y-17230746D02*
X2304705Y-17221222D01*
X2304705Y-17221222D02*
X2285658Y-17211698D01*
X2504705Y-17125984D02*
X2409467Y-17125984D01*
X2409467Y-17125984D02*
X2399944Y-17221222D01*
X2399944Y-17221222D02*
X2409467Y-17211698D01*
X2409467Y-17211698D02*
X2428515Y-17202174D01*
X2428515Y-17202174D02*
X2476134Y-17202174D01*
X2476134Y-17202174D02*
X2495182Y-17211698D01*
X2495182Y-17211698D02*
X2504705Y-17221222D01*
X2504705Y-17221222D02*
X2514229Y-17240270D01*
X2514229Y-17240270D02*
X2514229Y-17287889D01*
X2514229Y-17287889D02*
X2504705Y-17306936D01*
X2504705Y-17306936D02*
X2495182Y-17316460D01*
X2495182Y-17316460D02*
X2476134Y-17325984D01*
X2476134Y-17325984D02*
X2428515Y-17325984D01*
X2428515Y-17325984D02*
X2409467Y-17316460D01*
X2409467Y-17316460D02*
X2399944Y-17306936D01*
X2638039Y-17125984D02*
X2657086Y-17125984D01*
X2657086Y-17125984D02*
X2676134Y-17135508D01*
X2676134Y-17135508D02*
X2685658Y-17145031D01*
X2685658Y-17145031D02*
X2695182Y-17164079D01*
X2695182Y-17164079D02*
X2704705Y-17202174D01*
X2704705Y-17202174D02*
X2704705Y-17249793D01*
X2704705Y-17249793D02*
X2695182Y-17287889D01*
X2695182Y-17287889D02*
X2685658Y-17306936D01*
X2685658Y-17306936D02*
X2676134Y-17316460D01*
X2676134Y-17316460D02*
X2657086Y-17325984D01*
X2657086Y-17325984D02*
X2638039Y-17325984D01*
X2638039Y-17325984D02*
X2618991Y-17316460D01*
X2618991Y-17316460D02*
X2609467Y-17306936D01*
X2609467Y-17306936D02*
X2599944Y-17287889D01*
X2599944Y-17287889D02*
X2590420Y-17249793D01*
X2590420Y-17249793D02*
X2590420Y-17202174D01*
X2590420Y-17202174D02*
X2599944Y-17164079D01*
X2599944Y-17164079D02*
X2609467Y-17145031D01*
X2609467Y-17145031D02*
X2618991Y-17135508D01*
X2618991Y-17135508D02*
X2638039Y-17125984D01*
X2790420Y-17325984D02*
X2790420Y-17192650D01*
X2790420Y-17211698D02*
X2799943Y-17202174D01*
X2799943Y-17202174D02*
X2818991Y-17192650D01*
X2818991Y-17192650D02*
X2847563Y-17192650D01*
X2847563Y-17192650D02*
X2866610Y-17202174D01*
X2866610Y-17202174D02*
X2876134Y-17221222D01*
X2876134Y-17221222D02*
X2876134Y-17325984D01*
X2876134Y-17221222D02*
X2885658Y-17202174D01*
X2885658Y-17202174D02*
X2904705Y-17192650D01*
X2904705Y-17192650D02*
X2933277Y-17192650D01*
X2933277Y-17192650D02*
X2952324Y-17202174D01*
X2952324Y-17202174D02*
X2961848Y-17221222D01*
X2961848Y-17221222D02*
X2961848Y-17325984D01*
X3057086Y-17325984D02*
X3057086Y-17192650D01*
X3057086Y-17211698D02*
X3066610Y-17202174D01*
X3066610Y-17202174D02*
X3085658Y-17192650D01*
X3085658Y-17192650D02*
X3114229Y-17192650D01*
X3114229Y-17192650D02*
X3133277Y-17202174D01*
X3133277Y-17202174D02*
X3142801Y-17221222D01*
X3142801Y-17221222D02*
X3142801Y-17325984D01*
X3142801Y-17221222D02*
X3152324Y-17202174D01*
X3152324Y-17202174D02*
X3171372Y-17192650D01*
X3171372Y-17192650D02*
X3199943Y-17192650D01*
X3199943Y-17192650D02*
X3218991Y-17202174D01*
X3218991Y-17202174D02*
X3228515Y-17221222D01*
X3228515Y-17221222D02*
X3228515Y-17325984D01*
X3618991Y-17116460D02*
X3447563Y-17373603D01*
X3876134Y-17125984D02*
X3895182Y-17125984D01*
X3895182Y-17125984D02*
X3914229Y-17135508D01*
X3914229Y-17135508D02*
X3923753Y-17145031D01*
X3923753Y-17145031D02*
X3933277Y-17164079D01*
X3933277Y-17164079D02*
X3942801Y-17202174D01*
X3942801Y-17202174D02*
X3942801Y-17249793D01*
X3942801Y-17249793D02*
X3933277Y-17287889D01*
X3933277Y-17287889D02*
X3923753Y-17306936D01*
X3923753Y-17306936D02*
X3914229Y-17316460D01*
X3914229Y-17316460D02*
X3895182Y-17325984D01*
X3895182Y-17325984D02*
X3876134Y-17325984D01*
X3876134Y-17325984D02*
X3857086Y-17316460D01*
X3857086Y-17316460D02*
X3847563Y-17306936D01*
X3847563Y-17306936D02*
X3838039Y-17287889D01*
X3838039Y-17287889D02*
X3828515Y-17249793D01*
X3828515Y-17249793D02*
X3828515Y-17202174D01*
X3828515Y-17202174D02*
X3838039Y-17164079D01*
X3838039Y-17164079D02*
X3847563Y-17145031D01*
X3847563Y-17145031D02*
X3857086Y-17135508D01*
X3857086Y-17135508D02*
X3876134Y-17125984D01*
X4028515Y-17306936D02*
X4038039Y-17316460D01*
X4038039Y-17316460D02*
X4028515Y-17325984D01*
X4028515Y-17325984D02*
X4018991Y-17316460D01*
X4018991Y-17316460D02*
X4028515Y-17306936D01*
X4028515Y-17306936D02*
X4028515Y-17325984D01*
X4161848Y-17125984D02*
X4180896Y-17125984D01*
X4180896Y-17125984D02*
X4199944Y-17135508D01*
X4199944Y-17135508D02*
X4209468Y-17145031D01*
X4209468Y-17145031D02*
X4218991Y-17164079D01*
X4218991Y-17164079D02*
X4228515Y-17202174D01*
X4228515Y-17202174D02*
X4228515Y-17249793D01*
X4228515Y-17249793D02*
X4218991Y-17287889D01*
X4218991Y-17287889D02*
X4209468Y-17306936D01*
X4209468Y-17306936D02*
X4199944Y-17316460D01*
X4199944Y-17316460D02*
X4180896Y-17325984D01*
X4180896Y-17325984D02*
X4161848Y-17325984D01*
X4161848Y-17325984D02*
X4142801Y-17316460D01*
X4142801Y-17316460D02*
X4133277Y-17306936D01*
X4133277Y-17306936D02*
X4123753Y-17287889D01*
X4123753Y-17287889D02*
X4114229Y-17249793D01*
X4114229Y-17249793D02*
X4114229Y-17202174D01*
X4114229Y-17202174D02*
X4123753Y-17164079D01*
X4123753Y-17164079D02*
X4133277Y-17145031D01*
X4133277Y-17145031D02*
X4142801Y-17135508D01*
X4142801Y-17135508D02*
X4161848Y-17125984D01*
X4295182Y-17125984D02*
X4428515Y-17125984D01*
X4428515Y-17125984D02*
X4342801Y-17325984D01*
X4495182Y-17145031D02*
X4504706Y-17135508D01*
X4504706Y-17135508D02*
X4523753Y-17125984D01*
X4523753Y-17125984D02*
X4571372Y-17125984D01*
X4571372Y-17125984D02*
X4590420Y-17135508D01*
X4590420Y-17135508D02*
X4599944Y-17145031D01*
X4599944Y-17145031D02*
X4609468Y-17164079D01*
X4609468Y-17164079D02*
X4609468Y-17183127D01*
X4609468Y-17183127D02*
X4599944Y-17211698D01*
X4599944Y-17211698D02*
X4485658Y-17325984D01*
X4485658Y-17325984D02*
X4609468Y-17325984D01*
X4723753Y-17211698D02*
X4704706Y-17202174D01*
X4704706Y-17202174D02*
X4695182Y-17192650D01*
X4695182Y-17192650D02*
X4685658Y-17173603D01*
X4685658Y-17173603D02*
X4685658Y-17164079D01*
X4685658Y-17164079D02*
X4695182Y-17145031D01*
X4695182Y-17145031D02*
X4704706Y-17135508D01*
X4704706Y-17135508D02*
X4723753Y-17125984D01*
X4723753Y-17125984D02*
X4761849Y-17125984D01*
X4761849Y-17125984D02*
X4780896Y-17135508D01*
X4780896Y-17135508D02*
X4790420Y-17145031D01*
X4790420Y-17145031D02*
X4799944Y-17164079D01*
X4799944Y-17164079D02*
X4799944Y-17173603D01*
X4799944Y-17173603D02*
X4790420Y-17192650D01*
X4790420Y-17192650D02*
X4780896Y-17202174D01*
X4780896Y-17202174D02*
X4761849Y-17211698D01*
X4761849Y-17211698D02*
X4723753Y-17211698D01*
X4723753Y-17211698D02*
X4704706Y-17221222D01*
X4704706Y-17221222D02*
X4695182Y-17230746D01*
X4695182Y-17230746D02*
X4685658Y-17249793D01*
X4685658Y-17249793D02*
X4685658Y-17287889D01*
X4685658Y-17287889D02*
X4695182Y-17306936D01*
X4695182Y-17306936D02*
X4704706Y-17316460D01*
X4704706Y-17316460D02*
X4723753Y-17325984D01*
X4723753Y-17325984D02*
X4761849Y-17325984D01*
X4761849Y-17325984D02*
X4780896Y-17316460D01*
X4780896Y-17316460D02*
X4790420Y-17306936D01*
X4790420Y-17306936D02*
X4799944Y-17287889D01*
X4799944Y-17287889D02*
X4799944Y-17249793D01*
X4799944Y-17249793D02*
X4790420Y-17230746D01*
X4790420Y-17230746D02*
X4780896Y-17221222D01*
X4780896Y-17221222D02*
X4761849Y-17211698D01*
X4876134Y-17125984D02*
X4876134Y-17164079D01*
X4952325Y-17125984D02*
X4952325Y-17164079D01*
X5247563Y-17402174D02*
X5238039Y-17392650D01*
X5238039Y-17392650D02*
X5218991Y-17364079D01*
X5218991Y-17364079D02*
X5209468Y-17345031D01*
X5209468Y-17345031D02*
X5199944Y-17316460D01*
X5199944Y-17316460D02*
X5190420Y-17268841D01*
X5190420Y-17268841D02*
X5190420Y-17230746D01*
X5190420Y-17230746D02*
X5199944Y-17183127D01*
X5199944Y-17183127D02*
X5209468Y-17154555D01*
X5209468Y-17154555D02*
X5218991Y-17135508D01*
X5218991Y-17135508D02*
X5238039Y-17106936D01*
X5238039Y-17106936D02*
X5247563Y-17097412D01*
X5304706Y-17125984D02*
X5428515Y-17125984D01*
X5428515Y-17125984D02*
X5361849Y-17202174D01*
X5361849Y-17202174D02*
X5390420Y-17202174D01*
X5390420Y-17202174D02*
X5409468Y-17211698D01*
X5409468Y-17211698D02*
X5418991Y-17221222D01*
X5418991Y-17221222D02*
X5428515Y-17240270D01*
X5428515Y-17240270D02*
X5428515Y-17287889D01*
X5428515Y-17287889D02*
X5418991Y-17306936D01*
X5418991Y-17306936D02*
X5409468Y-17316460D01*
X5409468Y-17316460D02*
X5390420Y-17325984D01*
X5390420Y-17325984D02*
X5333277Y-17325984D01*
X5333277Y-17325984D02*
X5314230Y-17316460D01*
X5314230Y-17316460D02*
X5304706Y-17306936D01*
X5666610Y-17325984D02*
X5666610Y-17125984D01*
X5752325Y-17325984D02*
X5752325Y-17221222D01*
X5752325Y-17221222D02*
X5742801Y-17202174D01*
X5742801Y-17202174D02*
X5723753Y-17192650D01*
X5723753Y-17192650D02*
X5695182Y-17192650D01*
X5695182Y-17192650D02*
X5676134Y-17202174D01*
X5676134Y-17202174D02*
X5666610Y-17211698D01*
X5876134Y-17325984D02*
X5857087Y-17316460D01*
X5857087Y-17316460D02*
X5847563Y-17306936D01*
X5847563Y-17306936D02*
X5838039Y-17287889D01*
X5838039Y-17287889D02*
X5838039Y-17230746D01*
X5838039Y-17230746D02*
X5847563Y-17211698D01*
X5847563Y-17211698D02*
X5857087Y-17202174D01*
X5857087Y-17202174D02*
X5876134Y-17192650D01*
X5876134Y-17192650D02*
X5904706Y-17192650D01*
X5904706Y-17192650D02*
X5923753Y-17202174D01*
X5923753Y-17202174D02*
X5933277Y-17211698D01*
X5933277Y-17211698D02*
X5942801Y-17230746D01*
X5942801Y-17230746D02*
X5942801Y-17287889D01*
X5942801Y-17287889D02*
X5933277Y-17306936D01*
X5933277Y-17306936D02*
X5923753Y-17316460D01*
X5923753Y-17316460D02*
X5904706Y-17325984D01*
X5904706Y-17325984D02*
X5876134Y-17325984D01*
X6057087Y-17325984D02*
X6038039Y-17316460D01*
X6038039Y-17316460D02*
X6028515Y-17297412D01*
X6028515Y-17297412D02*
X6028515Y-17125984D01*
X6209468Y-17316460D02*
X6190420Y-17325984D01*
X6190420Y-17325984D02*
X6152325Y-17325984D01*
X6152325Y-17325984D02*
X6133277Y-17316460D01*
X6133277Y-17316460D02*
X6123753Y-17297412D01*
X6123753Y-17297412D02*
X6123753Y-17221222D01*
X6123753Y-17221222D02*
X6133277Y-17202174D01*
X6133277Y-17202174D02*
X6152325Y-17192650D01*
X6152325Y-17192650D02*
X6190420Y-17192650D01*
X6190420Y-17192650D02*
X6209468Y-17202174D01*
X6209468Y-17202174D02*
X6218991Y-17221222D01*
X6218991Y-17221222D02*
X6218991Y-17240270D01*
X6218991Y-17240270D02*
X6123753Y-17259317D01*
X6295182Y-17316460D02*
X6314230Y-17325984D01*
X6314230Y-17325984D02*
X6352325Y-17325984D01*
X6352325Y-17325984D02*
X6371372Y-17316460D01*
X6371372Y-17316460D02*
X6380896Y-17297412D01*
X6380896Y-17297412D02*
X6380896Y-17287889D01*
X6380896Y-17287889D02*
X6371372Y-17268841D01*
X6371372Y-17268841D02*
X6352325Y-17259317D01*
X6352325Y-17259317D02*
X6323753Y-17259317D01*
X6323753Y-17259317D02*
X6304706Y-17249793D01*
X6304706Y-17249793D02*
X6295182Y-17230746D01*
X6295182Y-17230746D02*
X6295182Y-17221222D01*
X6295182Y-17221222D02*
X6304706Y-17202174D01*
X6304706Y-17202174D02*
X6323753Y-17192650D01*
X6323753Y-17192650D02*
X6352325Y-17192650D01*
X6352325Y-17192650D02*
X6371372Y-17202174D01*
X6447563Y-17402174D02*
X6457087Y-17392650D01*
X6457087Y-17392650D02*
X6476134Y-17364079D01*
X6476134Y-17364079D02*
X6485658Y-17345031D01*
X6485658Y-17345031D02*
X6495182Y-17316460D01*
X6495182Y-17316460D02*
X6504706Y-17268841D01*
X6504706Y-17268841D02*
X6504706Y-17230746D01*
X6504706Y-17230746D02*
X6495182Y-17183127D01*
X6495182Y-17183127D02*
X6485658Y-17154555D01*
X6485658Y-17154555D02*
X6476134Y-17135508D01*
X6476134Y-17135508D02*
X6457087Y-17106936D01*
X6457087Y-17106936D02*
X6447563Y-17097412D01*
X1572500Y-17639500D02*
X1672500Y-17539500D01*
X1572500Y-17439500D01*
X1472500Y-17539500D01*
X1572500Y-17639500D01*
X1923753Y-17450031D02*
X1933277Y-17440508D01*
X1933277Y-17440508D02*
X1952324Y-17430984D01*
X1952324Y-17430984D02*
X1999943Y-17430984D01*
X1999943Y-17430984D02*
X2018991Y-17440508D01*
X2018991Y-17440508D02*
X2028515Y-17450031D01*
X2028515Y-17450031D02*
X2038039Y-17469079D01*
X2038039Y-17469079D02*
X2038039Y-17488127D01*
X2038039Y-17488127D02*
X2028515Y-17516698D01*
X2028515Y-17516698D02*
X1914229Y-17630984D01*
X1914229Y-17630984D02*
X2038039Y-17630984D01*
X2123753Y-17611936D02*
X2133277Y-17621460D01*
X2133277Y-17621460D02*
X2123753Y-17630984D01*
X2123753Y-17630984D02*
X2114229Y-17621460D01*
X2114229Y-17621460D02*
X2123753Y-17611936D01*
X2123753Y-17611936D02*
X2123753Y-17630984D01*
X2257086Y-17430984D02*
X2276134Y-17430984D01*
X2276134Y-17430984D02*
X2295182Y-17440508D01*
X2295182Y-17440508D02*
X2304705Y-17450031D01*
X2304705Y-17450031D02*
X2314229Y-17469079D01*
X2314229Y-17469079D02*
X2323753Y-17507174D01*
X2323753Y-17507174D02*
X2323753Y-17554793D01*
X2323753Y-17554793D02*
X2314229Y-17592889D01*
X2314229Y-17592889D02*
X2304705Y-17611936D01*
X2304705Y-17611936D02*
X2295182Y-17621460D01*
X2295182Y-17621460D02*
X2276134Y-17630984D01*
X2276134Y-17630984D02*
X2257086Y-17630984D01*
X2257086Y-17630984D02*
X2238039Y-17621460D01*
X2238039Y-17621460D02*
X2228515Y-17611936D01*
X2228515Y-17611936D02*
X2218991Y-17592889D01*
X2218991Y-17592889D02*
X2209467Y-17554793D01*
X2209467Y-17554793D02*
X2209467Y-17507174D01*
X2209467Y-17507174D02*
X2218991Y-17469079D01*
X2218991Y-17469079D02*
X2228515Y-17450031D01*
X2228515Y-17450031D02*
X2238039Y-17440508D01*
X2238039Y-17440508D02*
X2257086Y-17430984D01*
X2447563Y-17430984D02*
X2466610Y-17430984D01*
X2466610Y-17430984D02*
X2485658Y-17440508D01*
X2485658Y-17440508D02*
X2495182Y-17450031D01*
X2495182Y-17450031D02*
X2504705Y-17469079D01*
X2504705Y-17469079D02*
X2514229Y-17507174D01*
X2514229Y-17507174D02*
X2514229Y-17554793D01*
X2514229Y-17554793D02*
X2504705Y-17592889D01*
X2504705Y-17592889D02*
X2495182Y-17611936D01*
X2495182Y-17611936D02*
X2485658Y-17621460D01*
X2485658Y-17621460D02*
X2466610Y-17630984D01*
X2466610Y-17630984D02*
X2447563Y-17630984D01*
X2447563Y-17630984D02*
X2428515Y-17621460D01*
X2428515Y-17621460D02*
X2418991Y-17611936D01*
X2418991Y-17611936D02*
X2409467Y-17592889D01*
X2409467Y-17592889D02*
X2399944Y-17554793D01*
X2399944Y-17554793D02*
X2399944Y-17507174D01*
X2399944Y-17507174D02*
X2409467Y-17469079D01*
X2409467Y-17469079D02*
X2418991Y-17450031D01*
X2418991Y-17450031D02*
X2428515Y-17440508D01*
X2428515Y-17440508D02*
X2447563Y-17430984D01*
X2638039Y-17430984D02*
X2657086Y-17430984D01*
X2657086Y-17430984D02*
X2676134Y-17440508D01*
X2676134Y-17440508D02*
X2685658Y-17450031D01*
X2685658Y-17450031D02*
X2695182Y-17469079D01*
X2695182Y-17469079D02*
X2704705Y-17507174D01*
X2704705Y-17507174D02*
X2704705Y-17554793D01*
X2704705Y-17554793D02*
X2695182Y-17592889D01*
X2695182Y-17592889D02*
X2685658Y-17611936D01*
X2685658Y-17611936D02*
X2676134Y-17621460D01*
X2676134Y-17621460D02*
X2657086Y-17630984D01*
X2657086Y-17630984D02*
X2638039Y-17630984D01*
X2638039Y-17630984D02*
X2618991Y-17621460D01*
X2618991Y-17621460D02*
X2609467Y-17611936D01*
X2609467Y-17611936D02*
X2599944Y-17592889D01*
X2599944Y-17592889D02*
X2590420Y-17554793D01*
X2590420Y-17554793D02*
X2590420Y-17507174D01*
X2590420Y-17507174D02*
X2599944Y-17469079D01*
X2599944Y-17469079D02*
X2609467Y-17450031D01*
X2609467Y-17450031D02*
X2618991Y-17440508D01*
X2618991Y-17440508D02*
X2638039Y-17430984D01*
X2790420Y-17630984D02*
X2790420Y-17497650D01*
X2790420Y-17516698D02*
X2799943Y-17507174D01*
X2799943Y-17507174D02*
X2818991Y-17497650D01*
X2818991Y-17497650D02*
X2847563Y-17497650D01*
X2847563Y-17497650D02*
X2866610Y-17507174D01*
X2866610Y-17507174D02*
X2876134Y-17526222D01*
X2876134Y-17526222D02*
X2876134Y-17630984D01*
X2876134Y-17526222D02*
X2885658Y-17507174D01*
X2885658Y-17507174D02*
X2904705Y-17497650D01*
X2904705Y-17497650D02*
X2933277Y-17497650D01*
X2933277Y-17497650D02*
X2952324Y-17507174D01*
X2952324Y-17507174D02*
X2961848Y-17526222D01*
X2961848Y-17526222D02*
X2961848Y-17630984D01*
X3057086Y-17630984D02*
X3057086Y-17497650D01*
X3057086Y-17516698D02*
X3066610Y-17507174D01*
X3066610Y-17507174D02*
X3085658Y-17497650D01*
X3085658Y-17497650D02*
X3114229Y-17497650D01*
X3114229Y-17497650D02*
X3133277Y-17507174D01*
X3133277Y-17507174D02*
X3142801Y-17526222D01*
X3142801Y-17526222D02*
X3142801Y-17630984D01*
X3142801Y-17526222D02*
X3152324Y-17507174D01*
X3152324Y-17507174D02*
X3171372Y-17497650D01*
X3171372Y-17497650D02*
X3199943Y-17497650D01*
X3199943Y-17497650D02*
X3218991Y-17507174D01*
X3218991Y-17507174D02*
X3228515Y-17526222D01*
X3228515Y-17526222D02*
X3228515Y-17630984D01*
X3618991Y-17421460D02*
X3447563Y-17678603D01*
X3876134Y-17430984D02*
X3895182Y-17430984D01*
X3895182Y-17430984D02*
X3914229Y-17440508D01*
X3914229Y-17440508D02*
X3923753Y-17450031D01*
X3923753Y-17450031D02*
X3933277Y-17469079D01*
X3933277Y-17469079D02*
X3942801Y-17507174D01*
X3942801Y-17507174D02*
X3942801Y-17554793D01*
X3942801Y-17554793D02*
X3933277Y-17592889D01*
X3933277Y-17592889D02*
X3923753Y-17611936D01*
X3923753Y-17611936D02*
X3914229Y-17621460D01*
X3914229Y-17621460D02*
X3895182Y-17630984D01*
X3895182Y-17630984D02*
X3876134Y-17630984D01*
X3876134Y-17630984D02*
X3857086Y-17621460D01*
X3857086Y-17621460D02*
X3847563Y-17611936D01*
X3847563Y-17611936D02*
X3838039Y-17592889D01*
X3838039Y-17592889D02*
X3828515Y-17554793D01*
X3828515Y-17554793D02*
X3828515Y-17507174D01*
X3828515Y-17507174D02*
X3838039Y-17469079D01*
X3838039Y-17469079D02*
X3847563Y-17450031D01*
X3847563Y-17450031D02*
X3857086Y-17440508D01*
X3857086Y-17440508D02*
X3876134Y-17430984D01*
X4028515Y-17611936D02*
X4038039Y-17621460D01*
X4038039Y-17621460D02*
X4028515Y-17630984D01*
X4028515Y-17630984D02*
X4018991Y-17621460D01*
X4018991Y-17621460D02*
X4028515Y-17611936D01*
X4028515Y-17611936D02*
X4028515Y-17630984D01*
X4161848Y-17430984D02*
X4180896Y-17430984D01*
X4180896Y-17430984D02*
X4199944Y-17440508D01*
X4199944Y-17440508D02*
X4209468Y-17450031D01*
X4209468Y-17450031D02*
X4218991Y-17469079D01*
X4218991Y-17469079D02*
X4228515Y-17507174D01*
X4228515Y-17507174D02*
X4228515Y-17554793D01*
X4228515Y-17554793D02*
X4218991Y-17592889D01*
X4218991Y-17592889D02*
X4209468Y-17611936D01*
X4209468Y-17611936D02*
X4199944Y-17621460D01*
X4199944Y-17621460D02*
X4180896Y-17630984D01*
X4180896Y-17630984D02*
X4161848Y-17630984D01*
X4161848Y-17630984D02*
X4142801Y-17621460D01*
X4142801Y-17621460D02*
X4133277Y-17611936D01*
X4133277Y-17611936D02*
X4123753Y-17592889D01*
X4123753Y-17592889D02*
X4114229Y-17554793D01*
X4114229Y-17554793D02*
X4114229Y-17507174D01*
X4114229Y-17507174D02*
X4123753Y-17469079D01*
X4123753Y-17469079D02*
X4133277Y-17450031D01*
X4133277Y-17450031D02*
X4142801Y-17440508D01*
X4142801Y-17440508D02*
X4161848Y-17430984D01*
X4295182Y-17430984D02*
X4428515Y-17430984D01*
X4428515Y-17430984D02*
X4342801Y-17630984D01*
X4533277Y-17516698D02*
X4514229Y-17507174D01*
X4514229Y-17507174D02*
X4504706Y-17497650D01*
X4504706Y-17497650D02*
X4495182Y-17478603D01*
X4495182Y-17478603D02*
X4495182Y-17469079D01*
X4495182Y-17469079D02*
X4504706Y-17450031D01*
X4504706Y-17450031D02*
X4514229Y-17440508D01*
X4514229Y-17440508D02*
X4533277Y-17430984D01*
X4533277Y-17430984D02*
X4571372Y-17430984D01*
X4571372Y-17430984D02*
X4590420Y-17440508D01*
X4590420Y-17440508D02*
X4599944Y-17450031D01*
X4599944Y-17450031D02*
X4609468Y-17469079D01*
X4609468Y-17469079D02*
X4609468Y-17478603D01*
X4609468Y-17478603D02*
X4599944Y-17497650D01*
X4599944Y-17497650D02*
X4590420Y-17507174D01*
X4590420Y-17507174D02*
X4571372Y-17516698D01*
X4571372Y-17516698D02*
X4533277Y-17516698D01*
X4533277Y-17516698D02*
X4514229Y-17526222D01*
X4514229Y-17526222D02*
X4504706Y-17535746D01*
X4504706Y-17535746D02*
X4495182Y-17554793D01*
X4495182Y-17554793D02*
X4495182Y-17592889D01*
X4495182Y-17592889D02*
X4504706Y-17611936D01*
X4504706Y-17611936D02*
X4514229Y-17621460D01*
X4514229Y-17621460D02*
X4533277Y-17630984D01*
X4533277Y-17630984D02*
X4571372Y-17630984D01*
X4571372Y-17630984D02*
X4590420Y-17621460D01*
X4590420Y-17621460D02*
X4599944Y-17611936D01*
X4599944Y-17611936D02*
X4609468Y-17592889D01*
X4609468Y-17592889D02*
X4609468Y-17554793D01*
X4609468Y-17554793D02*
X4599944Y-17535746D01*
X4599944Y-17535746D02*
X4590420Y-17526222D01*
X4590420Y-17526222D02*
X4571372Y-17516698D01*
X4676134Y-17430984D02*
X4809468Y-17430984D01*
X4809468Y-17430984D02*
X4723753Y-17630984D01*
X4876134Y-17430984D02*
X4876134Y-17469079D01*
X4952325Y-17430984D02*
X4952325Y-17469079D01*
X5247563Y-17707174D02*
X5238039Y-17697650D01*
X5238039Y-17697650D02*
X5218991Y-17669079D01*
X5218991Y-17669079D02*
X5209468Y-17650031D01*
X5209468Y-17650031D02*
X5199944Y-17621460D01*
X5199944Y-17621460D02*
X5190420Y-17573841D01*
X5190420Y-17573841D02*
X5190420Y-17535746D01*
X5190420Y-17535746D02*
X5199944Y-17488127D01*
X5199944Y-17488127D02*
X5209468Y-17459555D01*
X5209468Y-17459555D02*
X5218991Y-17440508D01*
X5218991Y-17440508D02*
X5238039Y-17411936D01*
X5238039Y-17411936D02*
X5247563Y-17402412D01*
X5314230Y-17450031D02*
X5323753Y-17440508D01*
X5323753Y-17440508D02*
X5342801Y-17430984D01*
X5342801Y-17430984D02*
X5390420Y-17430984D01*
X5390420Y-17430984D02*
X5409468Y-17440508D01*
X5409468Y-17440508D02*
X5418991Y-17450031D01*
X5418991Y-17450031D02*
X5428515Y-17469079D01*
X5428515Y-17469079D02*
X5428515Y-17488127D01*
X5428515Y-17488127D02*
X5418991Y-17516698D01*
X5418991Y-17516698D02*
X5304706Y-17630984D01*
X5304706Y-17630984D02*
X5428515Y-17630984D01*
X5666610Y-17630984D02*
X5666610Y-17430984D01*
X5752325Y-17630984D02*
X5752325Y-17526222D01*
X5752325Y-17526222D02*
X5742801Y-17507174D01*
X5742801Y-17507174D02*
X5723753Y-17497650D01*
X5723753Y-17497650D02*
X5695182Y-17497650D01*
X5695182Y-17497650D02*
X5676134Y-17507174D01*
X5676134Y-17507174D02*
X5666610Y-17516698D01*
X5876134Y-17630984D02*
X5857087Y-17621460D01*
X5857087Y-17621460D02*
X5847563Y-17611936D01*
X5847563Y-17611936D02*
X5838039Y-17592889D01*
X5838039Y-17592889D02*
X5838039Y-17535746D01*
X5838039Y-17535746D02*
X5847563Y-17516698D01*
X5847563Y-17516698D02*
X5857087Y-17507174D01*
X5857087Y-17507174D02*
X5876134Y-17497650D01*
X5876134Y-17497650D02*
X5904706Y-17497650D01*
X5904706Y-17497650D02*
X5923753Y-17507174D01*
X5923753Y-17507174D02*
X5933277Y-17516698D01*
X5933277Y-17516698D02*
X5942801Y-17535746D01*
X5942801Y-17535746D02*
X5942801Y-17592889D01*
X5942801Y-17592889D02*
X5933277Y-17611936D01*
X5933277Y-17611936D02*
X5923753Y-17621460D01*
X5923753Y-17621460D02*
X5904706Y-17630984D01*
X5904706Y-17630984D02*
X5876134Y-17630984D01*
X6057087Y-17630984D02*
X6038039Y-17621460D01*
X6038039Y-17621460D02*
X6028515Y-17602412D01*
X6028515Y-17602412D02*
X6028515Y-17430984D01*
X6209468Y-17621460D02*
X6190420Y-17630984D01*
X6190420Y-17630984D02*
X6152325Y-17630984D01*
X6152325Y-17630984D02*
X6133277Y-17621460D01*
X6133277Y-17621460D02*
X6123753Y-17602412D01*
X6123753Y-17602412D02*
X6123753Y-17526222D01*
X6123753Y-17526222D02*
X6133277Y-17507174D01*
X6133277Y-17507174D02*
X6152325Y-17497650D01*
X6152325Y-17497650D02*
X6190420Y-17497650D01*
X6190420Y-17497650D02*
X6209468Y-17507174D01*
X6209468Y-17507174D02*
X6218991Y-17526222D01*
X6218991Y-17526222D02*
X6218991Y-17545270D01*
X6218991Y-17545270D02*
X6123753Y-17564317D01*
X6295182Y-17621460D02*
X6314230Y-17630984D01*
X6314230Y-17630984D02*
X6352325Y-17630984D01*
X6352325Y-17630984D02*
X6371372Y-17621460D01*
X6371372Y-17621460D02*
X6380896Y-17602412D01*
X6380896Y-17602412D02*
X6380896Y-17592889D01*
X6380896Y-17592889D02*
X6371372Y-17573841D01*
X6371372Y-17573841D02*
X6352325Y-17564317D01*
X6352325Y-17564317D02*
X6323753Y-17564317D01*
X6323753Y-17564317D02*
X6304706Y-17554793D01*
X6304706Y-17554793D02*
X6295182Y-17535746D01*
X6295182Y-17535746D02*
X6295182Y-17526222D01*
X6295182Y-17526222D02*
X6304706Y-17507174D01*
X6304706Y-17507174D02*
X6323753Y-17497650D01*
X6323753Y-17497650D02*
X6352325Y-17497650D01*
X6352325Y-17497650D02*
X6371372Y-17507174D01*
X6447563Y-17707174D02*
X6457087Y-17697650D01*
X6457087Y-17697650D02*
X6476134Y-17669079D01*
X6476134Y-17669079D02*
X6485658Y-17650031D01*
X6485658Y-17650031D02*
X6495182Y-17621460D01*
X6495182Y-17621460D02*
X6504706Y-17573841D01*
X6504706Y-17573841D02*
X6504706Y-17535746D01*
X6504706Y-17535746D02*
X6495182Y-17488127D01*
X6495182Y-17488127D02*
X6485658Y-17459555D01*
X6485658Y-17459555D02*
X6476134Y-17440508D01*
X6476134Y-17440508D02*
X6457087Y-17411936D01*
X6457087Y-17411936D02*
X6447563Y-17402412D01*
M02*
