%TF.GenerationSoftware,KiCad,Pcbnew,8.0.1-rc1*%
%TF.CreationDate,2024-09-01T13:54:38-05:00*%
%TF.ProjectId,PauseSwitch,50617573-6553-4776-9974-63682e6b6963,rev?*%
%TF.SameCoordinates,Original*%
%TF.FileFunction,Drillmap*%
%TF.FilePolarity,Positive*%
%FSLAX45Y45*%
G04 Gerber Fmt 4.5, Leading zero omitted, Abs format (unit mm)*
G04 Created by KiCad (PCBNEW 8.0.1-rc1) date 2024-09-01 13:54:38*
%MOMM*%
%LPD*%
G01*
G04 APERTURE LIST*
%ADD10C,0.050000*%
%ADD11C,0.200000*%
%ADD12C,0.550000*%
G04 APERTURE END LIST*
D10*
X27925000Y-1700000D02*
X27850000Y-15700000D01*
X27850000Y-15700000D02*
X1750000Y-15800000D01*
X1675000Y-1700000D02*
X1750000Y-15800000D01*
X1675000Y-1700000D02*
X27925000Y-1700000D01*
D11*
D12*
X2175000Y-2375000D02*
X2725000Y-2925000D01*
X2725000Y-2375000D02*
X2175000Y-2925000D01*
X2275000Y-14425000D02*
X2825000Y-14975000D01*
X2825000Y-14425000D02*
X2275000Y-14975000D01*
X26625000Y-14325000D02*
X27175000Y-14875000D01*
X27175000Y-14325000D02*
X26625000Y-14875000D01*
X26675000Y-2375000D02*
X27225000Y-2925000D01*
X27225000Y-2375000D02*
X26675000Y-2925000D01*
D11*
X1933277Y-16113984D02*
X1933277Y-15913984D01*
X1933277Y-15913984D02*
X1980896Y-15913984D01*
X1980896Y-15913984D02*
X2009467Y-15923508D01*
X2009467Y-15923508D02*
X2028515Y-15942555D01*
X2028515Y-15942555D02*
X2038039Y-15961603D01*
X2038039Y-15961603D02*
X2047562Y-15999698D01*
X2047562Y-15999698D02*
X2047562Y-16028269D01*
X2047562Y-16028269D02*
X2038039Y-16066365D01*
X2038039Y-16066365D02*
X2028515Y-16085412D01*
X2028515Y-16085412D02*
X2009467Y-16104460D01*
X2009467Y-16104460D02*
X1980896Y-16113984D01*
X1980896Y-16113984D02*
X1933277Y-16113984D01*
X2133277Y-16113984D02*
X2133277Y-15980650D01*
X2133277Y-16018746D02*
X2142801Y-15999698D01*
X2142801Y-15999698D02*
X2152324Y-15990174D01*
X2152324Y-15990174D02*
X2171372Y-15980650D01*
X2171372Y-15980650D02*
X2190420Y-15980650D01*
X2257086Y-16113984D02*
X2257086Y-15980650D01*
X2257086Y-15913984D02*
X2247563Y-15923508D01*
X2247563Y-15923508D02*
X2257086Y-15933031D01*
X2257086Y-15933031D02*
X2266610Y-15923508D01*
X2266610Y-15923508D02*
X2257086Y-15913984D01*
X2257086Y-15913984D02*
X2257086Y-15933031D01*
X2380896Y-16113984D02*
X2361848Y-16104460D01*
X2361848Y-16104460D02*
X2352324Y-16085412D01*
X2352324Y-16085412D02*
X2352324Y-15913984D01*
X2485658Y-16113984D02*
X2466610Y-16104460D01*
X2466610Y-16104460D02*
X2457086Y-16085412D01*
X2457086Y-16085412D02*
X2457086Y-15913984D01*
X2714229Y-16113984D02*
X2714229Y-15913984D01*
X2714229Y-15913984D02*
X2780896Y-16056841D01*
X2780896Y-16056841D02*
X2847562Y-15913984D01*
X2847562Y-15913984D02*
X2847562Y-16113984D01*
X3028515Y-16113984D02*
X3028515Y-16009222D01*
X3028515Y-16009222D02*
X3018991Y-15990174D01*
X3018991Y-15990174D02*
X2999943Y-15980650D01*
X2999943Y-15980650D02*
X2961848Y-15980650D01*
X2961848Y-15980650D02*
X2942801Y-15990174D01*
X3028515Y-16104460D02*
X3009467Y-16113984D01*
X3009467Y-16113984D02*
X2961848Y-16113984D01*
X2961848Y-16113984D02*
X2942801Y-16104460D01*
X2942801Y-16104460D02*
X2933277Y-16085412D01*
X2933277Y-16085412D02*
X2933277Y-16066365D01*
X2933277Y-16066365D02*
X2942801Y-16047317D01*
X2942801Y-16047317D02*
X2961848Y-16037793D01*
X2961848Y-16037793D02*
X3009467Y-16037793D01*
X3009467Y-16037793D02*
X3028515Y-16028269D01*
X3123753Y-15980650D02*
X3123753Y-16180650D01*
X3123753Y-15990174D02*
X3142801Y-15980650D01*
X3142801Y-15980650D02*
X3180896Y-15980650D01*
X3180896Y-15980650D02*
X3199943Y-15990174D01*
X3199943Y-15990174D02*
X3209467Y-15999698D01*
X3209467Y-15999698D02*
X3218991Y-16018746D01*
X3218991Y-16018746D02*
X3218991Y-16075888D01*
X3218991Y-16075888D02*
X3209467Y-16094936D01*
X3209467Y-16094936D02*
X3199943Y-16104460D01*
X3199943Y-16104460D02*
X3180896Y-16113984D01*
X3180896Y-16113984D02*
X3142801Y-16113984D01*
X3142801Y-16113984D02*
X3123753Y-16104460D01*
X3304705Y-16094936D02*
X3314229Y-16104460D01*
X3314229Y-16104460D02*
X3304705Y-16113984D01*
X3304705Y-16113984D02*
X3295182Y-16104460D01*
X3295182Y-16104460D02*
X3304705Y-16094936D01*
X3304705Y-16094936D02*
X3304705Y-16113984D01*
X3304705Y-15990174D02*
X3314229Y-15999698D01*
X3314229Y-15999698D02*
X3304705Y-16009222D01*
X3304705Y-16009222D02*
X3295182Y-15999698D01*
X3295182Y-15999698D02*
X3304705Y-15990174D01*
X3304705Y-15990174D02*
X3304705Y-16009222D01*
X1472500Y-16342500D02*
X1672500Y-16542500D01*
X1672500Y-16342500D02*
X1472500Y-16542500D01*
X2028515Y-16333984D02*
X1933277Y-16333984D01*
X1933277Y-16333984D02*
X1923753Y-16429222D01*
X1923753Y-16429222D02*
X1933277Y-16419698D01*
X1933277Y-16419698D02*
X1952324Y-16410174D01*
X1952324Y-16410174D02*
X1999943Y-16410174D01*
X1999943Y-16410174D02*
X2018991Y-16419698D01*
X2018991Y-16419698D02*
X2028515Y-16429222D01*
X2028515Y-16429222D02*
X2038039Y-16448269D01*
X2038039Y-16448269D02*
X2038039Y-16495888D01*
X2038039Y-16495888D02*
X2028515Y-16514936D01*
X2028515Y-16514936D02*
X2018991Y-16524460D01*
X2018991Y-16524460D02*
X1999943Y-16533984D01*
X1999943Y-16533984D02*
X1952324Y-16533984D01*
X1952324Y-16533984D02*
X1933277Y-16524460D01*
X1933277Y-16524460D02*
X1923753Y-16514936D01*
X2123753Y-16514936D02*
X2133277Y-16524460D01*
X2133277Y-16524460D02*
X2123753Y-16533984D01*
X2123753Y-16533984D02*
X2114229Y-16524460D01*
X2114229Y-16524460D02*
X2123753Y-16514936D01*
X2123753Y-16514936D02*
X2123753Y-16533984D01*
X2314229Y-16333984D02*
X2218991Y-16333984D01*
X2218991Y-16333984D02*
X2209467Y-16429222D01*
X2209467Y-16429222D02*
X2218991Y-16419698D01*
X2218991Y-16419698D02*
X2238039Y-16410174D01*
X2238039Y-16410174D02*
X2285658Y-16410174D01*
X2285658Y-16410174D02*
X2304705Y-16419698D01*
X2304705Y-16419698D02*
X2314229Y-16429222D01*
X2314229Y-16429222D02*
X2323753Y-16448269D01*
X2323753Y-16448269D02*
X2323753Y-16495888D01*
X2323753Y-16495888D02*
X2314229Y-16514936D01*
X2314229Y-16514936D02*
X2304705Y-16524460D01*
X2304705Y-16524460D02*
X2285658Y-16533984D01*
X2285658Y-16533984D02*
X2238039Y-16533984D01*
X2238039Y-16533984D02*
X2218991Y-16524460D01*
X2218991Y-16524460D02*
X2209467Y-16514936D01*
X2447563Y-16333984D02*
X2466610Y-16333984D01*
X2466610Y-16333984D02*
X2485658Y-16343508D01*
X2485658Y-16343508D02*
X2495182Y-16353031D01*
X2495182Y-16353031D02*
X2504705Y-16372079D01*
X2504705Y-16372079D02*
X2514229Y-16410174D01*
X2514229Y-16410174D02*
X2514229Y-16457793D01*
X2514229Y-16457793D02*
X2504705Y-16495888D01*
X2504705Y-16495888D02*
X2495182Y-16514936D01*
X2495182Y-16514936D02*
X2485658Y-16524460D01*
X2485658Y-16524460D02*
X2466610Y-16533984D01*
X2466610Y-16533984D02*
X2447563Y-16533984D01*
X2447563Y-16533984D02*
X2428515Y-16524460D01*
X2428515Y-16524460D02*
X2418991Y-16514936D01*
X2418991Y-16514936D02*
X2409467Y-16495888D01*
X2409467Y-16495888D02*
X2399944Y-16457793D01*
X2399944Y-16457793D02*
X2399944Y-16410174D01*
X2399944Y-16410174D02*
X2409467Y-16372079D01*
X2409467Y-16372079D02*
X2418991Y-16353031D01*
X2418991Y-16353031D02*
X2428515Y-16343508D01*
X2428515Y-16343508D02*
X2447563Y-16333984D01*
X2638039Y-16333984D02*
X2657086Y-16333984D01*
X2657086Y-16333984D02*
X2676134Y-16343508D01*
X2676134Y-16343508D02*
X2685658Y-16353031D01*
X2685658Y-16353031D02*
X2695182Y-16372079D01*
X2695182Y-16372079D02*
X2704705Y-16410174D01*
X2704705Y-16410174D02*
X2704705Y-16457793D01*
X2704705Y-16457793D02*
X2695182Y-16495888D01*
X2695182Y-16495888D02*
X2685658Y-16514936D01*
X2685658Y-16514936D02*
X2676134Y-16524460D01*
X2676134Y-16524460D02*
X2657086Y-16533984D01*
X2657086Y-16533984D02*
X2638039Y-16533984D01*
X2638039Y-16533984D02*
X2618991Y-16524460D01*
X2618991Y-16524460D02*
X2609467Y-16514936D01*
X2609467Y-16514936D02*
X2599944Y-16495888D01*
X2599944Y-16495888D02*
X2590420Y-16457793D01*
X2590420Y-16457793D02*
X2590420Y-16410174D01*
X2590420Y-16410174D02*
X2599944Y-16372079D01*
X2599944Y-16372079D02*
X2609467Y-16353031D01*
X2609467Y-16353031D02*
X2618991Y-16343508D01*
X2618991Y-16343508D02*
X2638039Y-16333984D01*
X2790420Y-16533984D02*
X2790420Y-16400650D01*
X2790420Y-16419698D02*
X2799943Y-16410174D01*
X2799943Y-16410174D02*
X2818991Y-16400650D01*
X2818991Y-16400650D02*
X2847563Y-16400650D01*
X2847563Y-16400650D02*
X2866610Y-16410174D01*
X2866610Y-16410174D02*
X2876134Y-16429222D01*
X2876134Y-16429222D02*
X2876134Y-16533984D01*
X2876134Y-16429222D02*
X2885658Y-16410174D01*
X2885658Y-16410174D02*
X2904705Y-16400650D01*
X2904705Y-16400650D02*
X2933277Y-16400650D01*
X2933277Y-16400650D02*
X2952324Y-16410174D01*
X2952324Y-16410174D02*
X2961848Y-16429222D01*
X2961848Y-16429222D02*
X2961848Y-16533984D01*
X3057086Y-16533984D02*
X3057086Y-16400650D01*
X3057086Y-16419698D02*
X3066610Y-16410174D01*
X3066610Y-16410174D02*
X3085658Y-16400650D01*
X3085658Y-16400650D02*
X3114229Y-16400650D01*
X3114229Y-16400650D02*
X3133277Y-16410174D01*
X3133277Y-16410174D02*
X3142801Y-16429222D01*
X3142801Y-16429222D02*
X3142801Y-16533984D01*
X3142801Y-16429222D02*
X3152324Y-16410174D01*
X3152324Y-16410174D02*
X3171372Y-16400650D01*
X3171372Y-16400650D02*
X3199943Y-16400650D01*
X3199943Y-16400650D02*
X3218991Y-16410174D01*
X3218991Y-16410174D02*
X3228515Y-16429222D01*
X3228515Y-16429222D02*
X3228515Y-16533984D01*
X3618991Y-16324460D02*
X3447563Y-16581603D01*
X3876134Y-16333984D02*
X3895182Y-16333984D01*
X3895182Y-16333984D02*
X3914229Y-16343508D01*
X3914229Y-16343508D02*
X3923753Y-16353031D01*
X3923753Y-16353031D02*
X3933277Y-16372079D01*
X3933277Y-16372079D02*
X3942801Y-16410174D01*
X3942801Y-16410174D02*
X3942801Y-16457793D01*
X3942801Y-16457793D02*
X3933277Y-16495888D01*
X3933277Y-16495888D02*
X3923753Y-16514936D01*
X3923753Y-16514936D02*
X3914229Y-16524460D01*
X3914229Y-16524460D02*
X3895182Y-16533984D01*
X3895182Y-16533984D02*
X3876134Y-16533984D01*
X3876134Y-16533984D02*
X3857086Y-16524460D01*
X3857086Y-16524460D02*
X3847563Y-16514936D01*
X3847563Y-16514936D02*
X3838039Y-16495888D01*
X3838039Y-16495888D02*
X3828515Y-16457793D01*
X3828515Y-16457793D02*
X3828515Y-16410174D01*
X3828515Y-16410174D02*
X3838039Y-16372079D01*
X3838039Y-16372079D02*
X3847563Y-16353031D01*
X3847563Y-16353031D02*
X3857086Y-16343508D01*
X3857086Y-16343508D02*
X3876134Y-16333984D01*
X4028515Y-16514936D02*
X4038039Y-16524460D01*
X4038039Y-16524460D02*
X4028515Y-16533984D01*
X4028515Y-16533984D02*
X4018991Y-16524460D01*
X4018991Y-16524460D02*
X4028515Y-16514936D01*
X4028515Y-16514936D02*
X4028515Y-16533984D01*
X4114229Y-16353031D02*
X4123753Y-16343508D01*
X4123753Y-16343508D02*
X4142801Y-16333984D01*
X4142801Y-16333984D02*
X4190420Y-16333984D01*
X4190420Y-16333984D02*
X4209468Y-16343508D01*
X4209468Y-16343508D02*
X4218991Y-16353031D01*
X4218991Y-16353031D02*
X4228515Y-16372079D01*
X4228515Y-16372079D02*
X4228515Y-16391127D01*
X4228515Y-16391127D02*
X4218991Y-16419698D01*
X4218991Y-16419698D02*
X4104706Y-16533984D01*
X4104706Y-16533984D02*
X4228515Y-16533984D01*
X4418991Y-16533984D02*
X4304706Y-16533984D01*
X4361848Y-16533984D02*
X4361848Y-16333984D01*
X4361848Y-16333984D02*
X4342801Y-16362555D01*
X4342801Y-16362555D02*
X4323753Y-16381603D01*
X4323753Y-16381603D02*
X4304706Y-16391127D01*
X4590420Y-16333984D02*
X4552325Y-16333984D01*
X4552325Y-16333984D02*
X4533277Y-16343508D01*
X4533277Y-16343508D02*
X4523753Y-16353031D01*
X4523753Y-16353031D02*
X4504706Y-16381603D01*
X4504706Y-16381603D02*
X4495182Y-16419698D01*
X4495182Y-16419698D02*
X4495182Y-16495888D01*
X4495182Y-16495888D02*
X4504706Y-16514936D01*
X4504706Y-16514936D02*
X4514229Y-16524460D01*
X4514229Y-16524460D02*
X4533277Y-16533984D01*
X4533277Y-16533984D02*
X4571372Y-16533984D01*
X4571372Y-16533984D02*
X4590420Y-16524460D01*
X4590420Y-16524460D02*
X4599944Y-16514936D01*
X4599944Y-16514936D02*
X4609468Y-16495888D01*
X4609468Y-16495888D02*
X4609468Y-16448269D01*
X4609468Y-16448269D02*
X4599944Y-16429222D01*
X4599944Y-16429222D02*
X4590420Y-16419698D01*
X4590420Y-16419698D02*
X4571372Y-16410174D01*
X4571372Y-16410174D02*
X4533277Y-16410174D01*
X4533277Y-16410174D02*
X4514229Y-16419698D01*
X4514229Y-16419698D02*
X4504706Y-16429222D01*
X4504706Y-16429222D02*
X4495182Y-16448269D01*
X4790420Y-16333984D02*
X4695182Y-16333984D01*
X4695182Y-16333984D02*
X4685658Y-16429222D01*
X4685658Y-16429222D02*
X4695182Y-16419698D01*
X4695182Y-16419698D02*
X4714229Y-16410174D01*
X4714229Y-16410174D02*
X4761849Y-16410174D01*
X4761849Y-16410174D02*
X4780896Y-16419698D01*
X4780896Y-16419698D02*
X4790420Y-16429222D01*
X4790420Y-16429222D02*
X4799944Y-16448269D01*
X4799944Y-16448269D02*
X4799944Y-16495888D01*
X4799944Y-16495888D02*
X4790420Y-16514936D01*
X4790420Y-16514936D02*
X4780896Y-16524460D01*
X4780896Y-16524460D02*
X4761849Y-16533984D01*
X4761849Y-16533984D02*
X4714229Y-16533984D01*
X4714229Y-16533984D02*
X4695182Y-16524460D01*
X4695182Y-16524460D02*
X4685658Y-16514936D01*
X4876134Y-16333984D02*
X4876134Y-16372079D01*
X4952325Y-16333984D02*
X4952325Y-16372079D01*
X5247563Y-16610174D02*
X5238039Y-16600650D01*
X5238039Y-16600650D02*
X5218991Y-16572079D01*
X5218991Y-16572079D02*
X5209468Y-16553031D01*
X5209468Y-16553031D02*
X5199944Y-16524460D01*
X5199944Y-16524460D02*
X5190420Y-16476841D01*
X5190420Y-16476841D02*
X5190420Y-16438746D01*
X5190420Y-16438746D02*
X5199944Y-16391127D01*
X5199944Y-16391127D02*
X5209468Y-16362555D01*
X5209468Y-16362555D02*
X5218991Y-16343508D01*
X5218991Y-16343508D02*
X5238039Y-16314936D01*
X5238039Y-16314936D02*
X5247563Y-16305412D01*
X5409468Y-16400650D02*
X5409468Y-16533984D01*
X5361849Y-16324460D02*
X5314230Y-16467317D01*
X5314230Y-16467317D02*
X5438039Y-16467317D01*
X5666610Y-16533984D02*
X5666610Y-16333984D01*
X5752325Y-16533984D02*
X5752325Y-16429222D01*
X5752325Y-16429222D02*
X5742801Y-16410174D01*
X5742801Y-16410174D02*
X5723753Y-16400650D01*
X5723753Y-16400650D02*
X5695182Y-16400650D01*
X5695182Y-16400650D02*
X5676134Y-16410174D01*
X5676134Y-16410174D02*
X5666610Y-16419698D01*
X5876134Y-16533984D02*
X5857087Y-16524460D01*
X5857087Y-16524460D02*
X5847563Y-16514936D01*
X5847563Y-16514936D02*
X5838039Y-16495888D01*
X5838039Y-16495888D02*
X5838039Y-16438746D01*
X5838039Y-16438746D02*
X5847563Y-16419698D01*
X5847563Y-16419698D02*
X5857087Y-16410174D01*
X5857087Y-16410174D02*
X5876134Y-16400650D01*
X5876134Y-16400650D02*
X5904706Y-16400650D01*
X5904706Y-16400650D02*
X5923753Y-16410174D01*
X5923753Y-16410174D02*
X5933277Y-16419698D01*
X5933277Y-16419698D02*
X5942801Y-16438746D01*
X5942801Y-16438746D02*
X5942801Y-16495888D01*
X5942801Y-16495888D02*
X5933277Y-16514936D01*
X5933277Y-16514936D02*
X5923753Y-16524460D01*
X5923753Y-16524460D02*
X5904706Y-16533984D01*
X5904706Y-16533984D02*
X5876134Y-16533984D01*
X6057087Y-16533984D02*
X6038039Y-16524460D01*
X6038039Y-16524460D02*
X6028515Y-16505412D01*
X6028515Y-16505412D02*
X6028515Y-16333984D01*
X6209468Y-16524460D02*
X6190420Y-16533984D01*
X6190420Y-16533984D02*
X6152325Y-16533984D01*
X6152325Y-16533984D02*
X6133277Y-16524460D01*
X6133277Y-16524460D02*
X6123753Y-16505412D01*
X6123753Y-16505412D02*
X6123753Y-16429222D01*
X6123753Y-16429222D02*
X6133277Y-16410174D01*
X6133277Y-16410174D02*
X6152325Y-16400650D01*
X6152325Y-16400650D02*
X6190420Y-16400650D01*
X6190420Y-16400650D02*
X6209468Y-16410174D01*
X6209468Y-16410174D02*
X6218991Y-16429222D01*
X6218991Y-16429222D02*
X6218991Y-16448269D01*
X6218991Y-16448269D02*
X6123753Y-16467317D01*
X6295182Y-16524460D02*
X6314230Y-16533984D01*
X6314230Y-16533984D02*
X6352325Y-16533984D01*
X6352325Y-16533984D02*
X6371372Y-16524460D01*
X6371372Y-16524460D02*
X6380896Y-16505412D01*
X6380896Y-16505412D02*
X6380896Y-16495888D01*
X6380896Y-16495888D02*
X6371372Y-16476841D01*
X6371372Y-16476841D02*
X6352325Y-16467317D01*
X6352325Y-16467317D02*
X6323753Y-16467317D01*
X6323753Y-16467317D02*
X6304706Y-16457793D01*
X6304706Y-16457793D02*
X6295182Y-16438746D01*
X6295182Y-16438746D02*
X6295182Y-16429222D01*
X6295182Y-16429222D02*
X6304706Y-16410174D01*
X6304706Y-16410174D02*
X6323753Y-16400650D01*
X6323753Y-16400650D02*
X6352325Y-16400650D01*
X6352325Y-16400650D02*
X6371372Y-16410174D01*
X6447563Y-16610174D02*
X6457087Y-16600650D01*
X6457087Y-16600650D02*
X6476134Y-16572079D01*
X6476134Y-16572079D02*
X6485658Y-16553031D01*
X6485658Y-16553031D02*
X6495182Y-16524460D01*
X6495182Y-16524460D02*
X6504706Y-16476841D01*
X6504706Y-16476841D02*
X6504706Y-16438746D01*
X6504706Y-16438746D02*
X6495182Y-16391127D01*
X6495182Y-16391127D02*
X6485658Y-16362555D01*
X6485658Y-16362555D02*
X6476134Y-16343508D01*
X6476134Y-16343508D02*
X6457087Y-16314936D01*
X6457087Y-16314936D02*
X6447563Y-16305412D01*
X6809468Y-16610174D02*
X6799944Y-16600650D01*
X6799944Y-16600650D02*
X6780896Y-16572079D01*
X6780896Y-16572079D02*
X6771372Y-16553031D01*
X6771372Y-16553031D02*
X6761849Y-16524460D01*
X6761849Y-16524460D02*
X6752325Y-16476841D01*
X6752325Y-16476841D02*
X6752325Y-16438746D01*
X6752325Y-16438746D02*
X6761849Y-16391127D01*
X6761849Y-16391127D02*
X6771372Y-16362555D01*
X6771372Y-16362555D02*
X6780896Y-16343508D01*
X6780896Y-16343508D02*
X6799944Y-16314936D01*
X6799944Y-16314936D02*
X6809468Y-16305412D01*
X6885658Y-16400650D02*
X6885658Y-16533984D01*
X6885658Y-16419698D02*
X6895182Y-16410174D01*
X6895182Y-16410174D02*
X6914230Y-16400650D01*
X6914230Y-16400650D02*
X6942801Y-16400650D01*
X6942801Y-16400650D02*
X6961849Y-16410174D01*
X6961849Y-16410174D02*
X6971372Y-16429222D01*
X6971372Y-16429222D02*
X6971372Y-16533984D01*
X7095182Y-16533984D02*
X7076134Y-16524460D01*
X7076134Y-16524460D02*
X7066611Y-16514936D01*
X7066611Y-16514936D02*
X7057087Y-16495888D01*
X7057087Y-16495888D02*
X7057087Y-16438746D01*
X7057087Y-16438746D02*
X7066611Y-16419698D01*
X7066611Y-16419698D02*
X7076134Y-16410174D01*
X7076134Y-16410174D02*
X7095182Y-16400650D01*
X7095182Y-16400650D02*
X7123753Y-16400650D01*
X7123753Y-16400650D02*
X7142801Y-16410174D01*
X7142801Y-16410174D02*
X7152325Y-16419698D01*
X7152325Y-16419698D02*
X7161849Y-16438746D01*
X7161849Y-16438746D02*
X7161849Y-16495888D01*
X7161849Y-16495888D02*
X7152325Y-16514936D01*
X7152325Y-16514936D02*
X7142801Y-16524460D01*
X7142801Y-16524460D02*
X7123753Y-16533984D01*
X7123753Y-16533984D02*
X7095182Y-16533984D01*
X7218992Y-16400650D02*
X7295182Y-16400650D01*
X7247563Y-16333984D02*
X7247563Y-16505412D01*
X7247563Y-16505412D02*
X7257087Y-16524460D01*
X7257087Y-16524460D02*
X7276134Y-16533984D01*
X7276134Y-16533984D02*
X7295182Y-16533984D01*
X7514230Y-16400650D02*
X7514230Y-16600650D01*
X7514230Y-16410174D02*
X7533277Y-16400650D01*
X7533277Y-16400650D02*
X7571373Y-16400650D01*
X7571373Y-16400650D02*
X7590420Y-16410174D01*
X7590420Y-16410174D02*
X7599944Y-16419698D01*
X7599944Y-16419698D02*
X7609468Y-16438746D01*
X7609468Y-16438746D02*
X7609468Y-16495888D01*
X7609468Y-16495888D02*
X7599944Y-16514936D01*
X7599944Y-16514936D02*
X7590420Y-16524460D01*
X7590420Y-16524460D02*
X7571373Y-16533984D01*
X7571373Y-16533984D02*
X7533277Y-16533984D01*
X7533277Y-16533984D02*
X7514230Y-16524460D01*
X7723753Y-16533984D02*
X7704706Y-16524460D01*
X7704706Y-16524460D02*
X7695182Y-16505412D01*
X7695182Y-16505412D02*
X7695182Y-16333984D01*
X7885658Y-16533984D02*
X7885658Y-16429222D01*
X7885658Y-16429222D02*
X7876134Y-16410174D01*
X7876134Y-16410174D02*
X7857087Y-16400650D01*
X7857087Y-16400650D02*
X7818992Y-16400650D01*
X7818992Y-16400650D02*
X7799944Y-16410174D01*
X7885658Y-16524460D02*
X7866611Y-16533984D01*
X7866611Y-16533984D02*
X7818992Y-16533984D01*
X7818992Y-16533984D02*
X7799944Y-16524460D01*
X7799944Y-16524460D02*
X7790420Y-16505412D01*
X7790420Y-16505412D02*
X7790420Y-16486365D01*
X7790420Y-16486365D02*
X7799944Y-16467317D01*
X7799944Y-16467317D02*
X7818992Y-16457793D01*
X7818992Y-16457793D02*
X7866611Y-16457793D01*
X7866611Y-16457793D02*
X7885658Y-16448269D01*
X7952325Y-16400650D02*
X8028515Y-16400650D01*
X7980896Y-16333984D02*
X7980896Y-16505412D01*
X7980896Y-16505412D02*
X7990420Y-16524460D01*
X7990420Y-16524460D02*
X8009468Y-16533984D01*
X8009468Y-16533984D02*
X8028515Y-16533984D01*
X8171373Y-16524460D02*
X8152325Y-16533984D01*
X8152325Y-16533984D02*
X8114230Y-16533984D01*
X8114230Y-16533984D02*
X8095182Y-16524460D01*
X8095182Y-16524460D02*
X8085658Y-16505412D01*
X8085658Y-16505412D02*
X8085658Y-16429222D01*
X8085658Y-16429222D02*
X8095182Y-16410174D01*
X8095182Y-16410174D02*
X8114230Y-16400650D01*
X8114230Y-16400650D02*
X8152325Y-16400650D01*
X8152325Y-16400650D02*
X8171373Y-16410174D01*
X8171373Y-16410174D02*
X8180896Y-16429222D01*
X8180896Y-16429222D02*
X8180896Y-16448269D01*
X8180896Y-16448269D02*
X8085658Y-16467317D01*
X8352325Y-16533984D02*
X8352325Y-16333984D01*
X8352325Y-16524460D02*
X8333277Y-16533984D01*
X8333277Y-16533984D02*
X8295182Y-16533984D01*
X8295182Y-16533984D02*
X8276134Y-16524460D01*
X8276134Y-16524460D02*
X8266611Y-16514936D01*
X8266611Y-16514936D02*
X8257087Y-16495888D01*
X8257087Y-16495888D02*
X8257087Y-16438746D01*
X8257087Y-16438746D02*
X8266611Y-16419698D01*
X8266611Y-16419698D02*
X8276134Y-16410174D01*
X8276134Y-16410174D02*
X8295182Y-16400650D01*
X8295182Y-16400650D02*
X8333277Y-16400650D01*
X8333277Y-16400650D02*
X8352325Y-16410174D01*
X8428516Y-16610174D02*
X8438039Y-16600650D01*
X8438039Y-16600650D02*
X8457087Y-16572079D01*
X8457087Y-16572079D02*
X8466611Y-16553031D01*
X8466611Y-16553031D02*
X8476135Y-16524460D01*
X8476135Y-16524460D02*
X8485658Y-16476841D01*
X8485658Y-16476841D02*
X8485658Y-16438746D01*
X8485658Y-16438746D02*
X8476135Y-16391127D01*
X8476135Y-16391127D02*
X8466611Y-16362555D01*
X8466611Y-16362555D02*
X8457087Y-16343508D01*
X8457087Y-16343508D02*
X8438039Y-16314936D01*
X8438039Y-16314936D02*
X8428516Y-16305412D01*
M02*
